<svg width="54" height="54" viewBox="0 0 54 54" fill="none" xmlns="http://www.w3.org/2000/svg">
<path fill-rule="evenodd" clip-rule="evenodd" d="M53.9105 24.5454C53.7802 23.042 53.5269 21.5738 53.1607 20.1509L19.6853 52.9745C21.1014 53.369 22.5644 53.6512 24.0639 53.8109L53.9105 24.5454ZM29.8275 53.8142C42.3019 52.5004 52.2495 42.7084 53.8018 30.3066L29.8275 53.8142ZM49.8986 12.5652C50.5725 13.6403 51.1729 14.7661 51.6928 15.9357L15.5003 51.4235C14.3416 50.8808 13.2278 50.2584 12.1659 49.5633L49.8986 12.5652ZM47.4793 9.2828C46.6823 8.35609 45.8236 7.48398 44.9096 6.67284L6.37217 44.46C7.16548 45.3899 8.02069 46.2654 8.93142 47.0802L47.4793 9.2828ZM38.3169 2.35294C39.4793 2.89134 40.5972 3.50984 41.6632 4.20137L3.96479 41.1658C3.29455 40.0867 2.69814 38.957 2.18263 37.7837L38.3169 2.35294ZM34.1159 0.817495C32.6933 0.428351 31.2239 0.152424 29.7181 0L0 29.1395C0.122994 30.6491 0.369925 32.1236 0.730601 33.5528L34.1159 0.817495ZM0.142868 23.3448C1.75843 11.0833 11.5861 1.40998 23.9204 0.0302428L0.142868 23.3448Z" fill="#40D2FF"/>
</svg>
