<svg width="331" height="116" viewBox="0 0 331 116" fill="none" xmlns="http://www.w3.org/2000/svg">
<mask id="path-1-inside-1_94_162" fill="white">
<path fill-rule="evenodd" clip-rule="evenodd" d="M83 0.5C83 7.40356 77.4036 13 70.5 13C63.5964 13 58 7.40356 58 0.5C58 0.332544 58.0033 0.165857 58.0098 0H8C3.58172 0 0 3.58172 0 8V44.0098C0.165857 44.0033 0.332544 44 0.5 44C7.40356 44 13 49.5964 13 56.5C13 63.4036 7.40356 69 0.5 69C0.332544 69 0.165857 68.9967 0 68.9902V108C0 112.418 3.58173 116 8.00001 116H58.0098C58.0033 115.834 58 115.667 58 115.5C58 108.596 63.5964 103 70.5 103C77.4036 103 83 108.596 83 115.5C83 115.667 82.9967 115.834 82.9902 116H323C327.418 116 331 112.418 331 108V8C331 3.58172 327.418 0 323 0H82.9902C82.9967 0.165857 83 0.332544 83 0.5Z"/>
</mask>
<path d="M58.0098 0L66.0036 0.314396L66.3306 -8H58.0098V0ZM0 44.0098H-8V52.3306L0.314396 52.0036L0 44.0098ZM0 68.9902L0.314396 60.9964L-8 60.6694V68.9902H0ZM58.0098 116V124H66.3306L66.0036 115.686L58.0098 116ZM82.9902 116L74.9964 115.686L74.6694 124H82.9902V116ZM82.9902 0V-8H74.6694L74.9964 0.314396L82.9902 0ZM70.5 21C81.8218 21 91 11.8218 91 0.5H75C75 2.98528 72.9853 5 70.5 5V21ZM50 0.5C50 11.8218 59.1782 21 70.5 21V5C68.0147 5 66 2.98528 66 0.5H50ZM50.016 -0.314396C50.0054 -0.0439452 50 0.227561 50 0.5H66C66 0.437527 66.0012 0.375659 66.0036 0.314396L50.016 -0.314396ZM8 8H58.0098V-8H8V8ZM8 8V8V-8C-0.836552 -8 -8 -0.836562 -8 8H8ZM8 44.0098V8H-8V44.0098H8ZM0.5 36C0.227561 36 -0.0439452 36.0054 -0.314396 36.016L0.314396 52.0036C0.375659 52.0012 0.437527 52 0.5 52V36ZM21 56.5C21 45.1782 11.8218 36 0.5 36V52C2.98528 52 5 54.0147 5 56.5H21ZM0.5 77C11.8218 77 21 67.8218 21 56.5H5C5 58.9853 2.98528 61 0.5 61V77ZM-0.314396 76.984C-0.0439452 76.9946 0.227561 77 0.5 77V61C0.437527 61 0.375659 60.9988 0.314396 60.9964L-0.314396 76.984ZM8 108V68.9902H-8V108H8ZM8.00001 108H8H-8C-8 116.837 -0.836536 124 8.00001 124V108ZM58.0098 108H8.00001V124H58.0098V108ZM66.0036 115.686C66.0012 115.624 66 115.562 66 115.5H50C50 115.772 50.0054 116.044 50.016 116.314L66.0036 115.686ZM66 115.5C66 113.015 68.0147 111 70.5 111V95C59.1782 95 50 104.178 50 115.5H66ZM70.5 111C72.9853 111 75 113.015 75 115.5H91C91 104.178 81.8218 95 70.5 95V111ZM75 115.5C75 115.562 74.9988 115.624 74.9964 115.686L90.984 116.314C90.9946 116.044 91 115.772 91 115.5H75ZM323 108H82.9902V124H323V108ZM323 108V124C331.837 124 339 116.837 339 108H323ZM323 8V108H339V8H323ZM323 8H339C339 -0.836559 331.837 -8 323 -8V8ZM82.9902 8H323V-8H82.9902V8ZM91 0.5C91 0.227561 90.9946 -0.0439452 90.984 -0.314396L74.9964 0.314396C74.9988 0.375659 75 0.437527 75 0.5H91Z" fill="url(#paint0_linear_94_162)" mask="url(#path-1-inside-1_94_162)"/>
<line x1="71" y1="21" x2="71" y2="94" stroke="#FFCE7B" stroke-width="6" stroke-dasharray="2 2"/>
<path d="M251.14 91.54H253C253.34 90.95 253.64 90.29 253.87 89.59L254.95 89.98C254.48 90.92 254.37 91.11 254.11 91.54H254.55C255 91.54 255.2 91.53 255.45 91.49V92.57C255.21 92.53 254.94 92.52 254.46 92.52H253.27V93.52H254.25C254.72 93.52 254.98 93.51 255.2 93.47V94.51C254.97 94.47 254.71 94.46 254.26 94.46H253.27V95.58H254.57C254.98 95.58 255.29 95.57 255.61 95.53V96.63C255.3 96.59 255.01 96.57 254.59 96.57H253.27V97.62C253.27 98.09 253.29 98.45 253.33 98.82H252.12C252.16 98.49 252.18 98.09 252.18 97.63V96.57H251.25C250.79 96.57 250.5 96.58 250.21 96.62V95.53C250.5 95.57 250.78 95.58 251.26 95.58H252.18V94.46H251.42C250.97 94.46 250.77 94.47 250.51 94.51V93.47C250.77 93.51 251 93.52 251.42 93.52H252.18V92.52H251.24C250.78 92.52 250.53 92.53 250.28 92.57V91.49C250.53 91.53 250.71 91.54 251.14 91.54ZM246.78 90.86V89.86C247.05 89.9 247.21 89.91 247.62 89.91H249.03C249.44 89.91 249.6 89.9 249.87 89.86V90.86C249.63 90.83 249.4 90.82 249.03 90.82H247.62C247.25 90.82 247.03 90.83 246.78 90.86ZM246.46 92.31V91.27C246.7 91.31 246.89 91.32 247.26 91.32H249.27C249.67 91.32 249.86 91.31 250.07 91.28V92.3C249.86 92.28 249.74 92.27 249.31 92.27H247.26C246.9 92.27 246.71 92.28 246.46 92.31ZM246.82 93.73V92.82C247.03 92.84 247.15 92.85 247.48 92.85H249.24C249.58 92.85 249.67 92.85 249.88 92.82V93.73C249.65 93.7 249.56 93.7 249.24 93.7H247.48C247.15 93.7 247.05 93.7 246.82 93.73ZM246.82 95.12V94.21C247.03 94.23 247.15 94.24 247.48 94.24H249.24C249.57 94.24 249.68 94.24 249.88 94.21V95.12C249.67 95.1 249.54 95.09 249.22 95.09H247.47C247.15 95.09 247.04 95.09 246.82 95.12ZM247.77 98.86H246.72C246.76 98.56 246.78 98.23 246.78 97.89V96.4C246.78 96.09 246.77 95.89 246.73 95.61C246.98 95.64 247.21 95.65 247.5 95.65H249.22C249.61 95.65 249.72 95.65 249.9 95.62C249.88 95.82 249.87 95.98 249.87 96.34V97.95C249.87 98.25 249.88 98.48 249.91 98.73H248.92V98.39H247.77V98.86ZM247.74 96.51V97.51H248.92V96.51H247.74ZM252.37 91.08L251.41 91.52C251.18 90.92 250.98 90.52 250.66 90.03L251.58 89.6C251.92 90.11 252.07 90.39 252.37 91.08ZM258.04 90.01L259.44 90.03C259.38 90.32 259.36 90.61 259.32 91.38C259.28 92.31 259.22 94.34 259.22 95.05C259.22 96 259.28 96.36 259.48 96.66C259.71 96.99 260.19 97.18 260.82 97.18C261.9 97.18 262.77 96.57 263.24 95.47C263.46 94.95 263.59 94.48 263.7 93.79C264.24 94.23 264.42 94.34 264.91 94.56C264.51 95.91 264.21 96.56 263.72 97.11C262.97 97.96 261.98 98.38 260.72 98.38C260.03 98.38 259.39 98.22 258.97 97.94C258.28 97.48 257.99 96.71 257.99 95.37C257.99 94.85 258.01 93.85 258.07 91.34C258.08 91.04 258.08 90.83 258.08 90.69C258.08 90.41 258.07 90.27 258.04 90.01ZM272.15 89.7L273.3 90.58C273.13 90.7 272.94 90.87 272.07 91.68C271.56 92.15 270.86 92.71 269.69 93.6C269.38 93.83 269.31 93.91 269.31 94.02C269.31 94.17 269.33 94.19 270.21 94.85C271.77 96.03 272.06 96.28 273.36 97.46C273.46 97.56 273.52 97.61 273.65 97.71L272.62 98.75C272.36 98.39 272 98.01 271.32 97.38C270.61 96.72 270.28 96.45 268.74 95.25C268.08 94.74 267.9 94.47 267.9 94.01C267.9 93.71 268.01 93.44 268.23 93.2C268.36 93.06 268.37 93.05 269.11 92.48C270.19 91.66 270.75 91.18 271.42 90.53C271.87 90.08 271.98 89.95 272.15 89.7ZM279.58 92.97L279.6 91.82C280.07 91.94 280.59 91.98 281.41 91.98C281.76 91.98 281.98 91.98 282.33 91.96C282.33 91.37 282.32 90.87 282.32 90.46C282.32 90.24 282.31 90.09 282.29 89.98L283.54 89.95C283.49 90.23 283.47 90.71 283.47 91.42C283.47 91.53 283.47 91.68 283.47 91.88C283.99 91.82 284.43 91.74 284.82 91.64C284.88 91.62 284.88 91.62 285.04 91.56L285.12 91.54L285.16 92.67C285.06 92.68 285.05 92.68 284.87 92.72C284.53 92.79 284.01 92.88 283.48 92.94C283.48 93.03 283.48 93.03 283.48 93.16C283.48 93.72 283.48 93.74 283.58 95.42C284.3 95.76 284.55 95.9 285.15 96.33C285.28 96.42 285.33 96.45 285.43 96.5L284.95 97.71C284.78 97.51 284.48 97.25 284.2 97.07C283.86 96.85 283.63 96.7 283.57 96.66C283.57 96.72 283.57 96.74 283.57 96.8C283.57 97.02 283.54 97.22 283.49 97.36C283.26 97.95 282.56 98.3 281.59 98.3C280.28 98.3 279.48 97.68 279.48 96.66C279.48 95.69 280.33 95.01 281.54 95.01C281.91 95.01 282.16 95.05 282.43 95.15C282.4 94.9 282.39 94.41 282.35 93.02C281.95 93.03 281.71 93.04 281.45 93.04C281.08 93.04 280.68 93.03 280.21 92.99C280.07 92.99 279.96 92.98 279.91 92.98C279.82 92.97 279.76 92.97 279.74 92.97C279.69 92.96 279.66 92.96 279.64 92.96C279.63 92.96 279.61 92.96 279.58 92.97ZM282.45 96.17C282.12 96.05 281.93 96.01 281.63 96.01C280.99 96.01 280.59 96.26 280.59 96.67C280.59 97.04 280.95 97.29 281.51 97.29C281.88 97.29 282.17 97.18 282.32 96.98C282.41 96.86 282.45 96.71 282.45 96.44C282.45 96.33 282.45 96.17 282.45 96.17ZM278.54 98.3L277.34 98.37C277.33 98.27 277.33 98.21 277.29 97.98C277.1 96.81 277.02 95.85 277.02 94.8C277.02 93.9 277.08 93.02 277.21 92.15C277.26 91.85 277.26 91.85 277.48 90.72C277.55 90.37 277.59 90.08 277.59 89.98C277.59 89.97 277.59 89.96 277.59 89.94L278.94 90.08C278.53 90.95 278.15 93.36 278.14 95.1C278.13 95.46 278.13 95.46 278.13 95.62C278.13 95.69 278.13 95.69 278.13 95.78C278.13 95.86 278.13 95.88 278.12 95.99H278.13C278.18 95.88 278.18 95.88 278.25 95.7C278.27 95.63 278.32 95.52 278.37 95.36C278.46 95.15 278.46 95.15 278.56 94.91C278.58 94.88 278.59 94.85 278.68 94.6L279.51 94.97C278.92 96.13 278.52 97.37 278.52 98.03C278.52 98.1 278.52 98.11 278.54 98.3ZM288.13 91.65L288.22 90.46C288.99 90.64 289.88 90.71 291.22 90.71C292.49 90.71 293.2 90.66 293.86 90.52L293.9 91.64C293.3 91.91 292.22 92.58 291.23 93.3L290.36 92.61C290.88 92.28 291.37 91.98 291.83 91.72C291.39 91.78 290.96 91.8 290.33 91.8C289.82 91.8 288.99 91.75 288.5 91.68C288.3 91.66 288.27 91.65 288.13 91.65ZM288.87 93.91L289.74 94.57C289.11 95.09 288.83 95.51 288.83 95.94C288.83 96.59 289.56 96.87 291.25 96.87C292.44 96.87 293.75 96.69 294.39 96.45L294.5 97.82C294.33 97.83 294.27 97.83 294.06 97.86C292.86 98.03 292.22 98.08 291.36 98.08C290.27 98.08 289.39 97.97 288.86 97.75C288 97.42 287.58 96.86 287.58 96.08C287.58 95.32 287.97 94.66 288.87 93.91ZM297.02 92.38L297.04 91.21C297.5 91.33 298.17 91.38 299.2 91.38C299.39 90.58 299.46 90.16 299.48 89.73L300.82 89.84C300.76 90.02 300.76 90.02 300.66 90.42C300.48 91.17 300.48 91.17 300.42 91.36C301.18 91.34 302.31 91.26 302.97 91.18C303.71 91.09 303.9 91.05 304.25 90.95L304.31 92.16C304.08 92.17 303.99 92.18 303.73 92.21C302.28 92.37 301.4 92.44 300.15 92.47C299.94 93.18 299.56 94.14 299.36 94.5V94.52C300.03 94.09 300.9 93.87 301.88 93.87C303.64 93.87 304.69 94.63 304.69 95.9C304.69 97.38 303.26 98.34 301.07 98.34C300.18 98.34 299.3 98.22 298.52 97.99C298.52 97.42 298.51 97.22 298.42 96.72C299.32 97.04 300.16 97.2 301 97.2C302.45 97.2 303.39 96.69 303.39 95.89C303.39 95.27 302.79 94.93 301.71 94.93C300.97 94.93 300.2 95.11 299.56 95.42C299.19 95.6 299.01 95.75 298.83 96L297.62 95.58C297.77 95.34 297.94 95.03 298.09 94.68C298.42 93.92 298.79 92.95 298.93 92.46C298.4 92.45 297.95 92.43 297.42 92.39C297.28 92.38 297.18 92.38 297.1 92.38C297.09 92.38 297.06 92.38 297.02 92.38ZM308.87 90.85L309.45 89.84C310.14 90.22 312.05 90.79 313.18 90.95L312.77 92.1C311.06 91.71 310.01 91.38 308.87 90.85ZM308.07 91.73L309.32 91.8C309.17 92.35 309 93.28 308.87 94.26C308.85 94.4 308.85 94.4 308.82 94.55L308.84 94.57C309.42 94.01 310.66 93.62 311.87 93.62C313.57 93.62 314.69 94.46 314.69 95.74C314.69 96.47 314.3 97.21 313.66 97.67C313.01 98.14 312.18 98.35 311.02 98.35C310.16 98.35 309.61 98.28 308.47 98C308.46 97.38 308.44 97.18 308.32 96.71C309.3 97.05 310.16 97.21 311.01 97.21C312.42 97.21 313.4 96.62 313.4 95.77C313.4 95.1 312.77 94.7 311.71 94.7C310.82 94.7 309.89 94.97 309.22 95.43C309.04 95.56 308.98 95.62 308.77 95.86L307.51 95.82C307.54 95.64 307.54 95.6 307.59 95.22C307.67 94.6 307.83 93.49 308.01 92.31C308.05 92.07 308.06 91.95 308.07 91.73Z" fill="#333333"/>
<path d="M108.452 72.524V72.272C105.792 72.776 105.792 72.776 102.768 73.224C100.528 73.532 99.548 73.7 98.848 73.84L98.204 70.956C98.4 70.984 98.512 70.984 98.652 70.984C99.1 70.984 99.884 70.928 101.06 70.844V62.164C99.828 62.164 99.128 62.192 98.288 62.304V59.588C99.044 59.728 99.772 59.756 101.172 59.756H120.968C122.396 59.756 123.096 59.728 123.88 59.588V62.304C122.984 62.192 122.312 62.164 120.94 62.164H111.224V72.412C112.68 71.88 113.94 71.236 115.004 70.424C114.024 69.304 113.464 68.52 112.456 66.868L114.836 65.804H114.108C113.212 65.804 112.708 65.832 112.008 65.916V63.284C112.652 63.368 113.212 63.396 114.36 63.396H119.064C120.016 63.396 120.716 63.368 121.164 63.284L122.62 64.88C122.424 65.16 122.368 65.272 122.172 65.692C121.248 67.54 120.128 69.22 118.98 70.48C120.24 71.292 121.78 71.908 123.936 72.468C123.376 73.308 122.928 74.176 122.508 75.212C119.54 74.064 118.756 73.644 117.02 72.3C115.62 73.448 114.5 74.148 112.68 75.016C112.316 74.12 111.84 73.308 111.224 72.664C111.224 73.812 111.252 74.624 111.364 75.352H108.284C108.396 74.68 108.452 73.924 108.452 72.524ZM108.452 69.976V68.856H103.804V70.592C105.176 70.452 105.82 70.368 108.452 69.976ZM108.452 66.812V65.468H103.804V66.812H108.452ZM108.452 63.424V62.164H103.804V63.424H108.452ZM119.036 65.804H114.976C115.732 67.232 116.124 67.848 116.964 68.744C117.832 67.848 118.308 67.148 119.036 65.804ZM120.884 52.644V56.396C120.884 57.488 120.912 58.16 120.996 58.832C120.352 58.776 119.344 58.748 118.392 58.748H104.168C102.908 58.748 102.152 58.776 101.284 58.832C101.368 58.132 101.396 57.432 101.396 56.424V52.644C101.396 51.608 101.368 50.908 101.284 50.208C102.208 50.292 102.964 50.32 104.252 50.32H118.028C119.316 50.32 120.044 50.292 120.996 50.208C120.912 50.88 120.884 51.552 120.884 52.644ZM104.28 52.476V53.596H117.972V52.476H104.28ZM104.28 55.528V56.676H117.972V55.528H104.28ZM147.848 59.224H140.596C141.296 61.744 142.78 64.46 144.628 66.56C146.7 68.912 149.024 70.508 152.356 71.88C151.404 73 151.012 73.588 150.312 75.1C147.316 73.56 145.384 72.132 143.396 69.976C141.576 68.044 140.204 65.804 139.168 63.2C138.328 66.084 136.844 68.492 134.604 70.704C132.7 72.58 130.684 73.896 127.912 75.1C127.436 74.036 126.848 73.168 125.952 72.16C127.968 71.348 129.088 70.76 130.488 69.78C134.24 67.12 136.116 63.984 136.788 59.224H130.18C128.416 59.224 127.604 59.28 126.68 59.42V55.864C127.548 56.004 128.556 56.06 130.208 56.06H137.068C137.124 54.66 137.152 54.212 137.152 52.756C137.152 51.58 137.068 50.74 136.956 49.956H140.652C140.512 50.936 140.484 51.356 140.456 53.232C140.456 54.38 140.428 55.024 140.4 56.06H147.82C149.416 56.06 150.396 56.004 151.348 55.864V59.42C150.228 59.28 149.388 59.224 147.848 59.224Z" fill="#333333"/>
<path d="M247.072 55.928L262.168 36.608L263.416 37.568L248.296 56.912L247.072 55.928ZM260.896 56.672C259.552 56.672 258.448 56.264 257.632 55.448C256.72 54.56 256.24 53.12 256.24 51.296C256.24 49.496 256.72 48.08 257.632 47.168C258.448 46.376 259.576 45.944 260.896 45.944C262.216 45.944 263.344 46.376 264.136 47.168C265.048 48.056 265.528 49.496 265.528 51.296C265.528 53.12 265.048 54.56 264.136 55.448C263.32 56.264 262.216 56.672 260.896 56.672ZM260.896 47.984C260.2 47.984 259.744 48.2 259.36 48.752C258.928 49.352 258.712 50.168 258.712 51.248C258.712 53.456 259.48 54.656 260.896 54.656C262.336 54.656 263.08 53.456 263.08 51.128C263.08 50.168 262.84 49.304 262.432 48.728C262.024 48.2 261.592 47.984 260.896 47.984ZM249.592 47.552C248.248 47.552 247.144 47.144 246.328 46.328C245.416 45.44 244.936 43.976 244.936 42.176C244.936 38.816 246.664 36.824 249.592 36.824C250.912 36.824 252.04 37.256 252.832 38.048C253.744 38.936 254.224 40.376 254.224 42.176C254.224 44 253.744 45.44 252.832 46.328C252.016 47.144 250.912 47.552 249.592 47.552ZM249.592 38.864C248.2 38.864 247.408 40.04 247.408 42.128C247.408 44.336 248.176 45.536 249.592 45.536C250.984 45.536 251.776 44.336 251.776 42.176C251.776 41.312 251.608 40.448 251.344 39.944C250.936 39.2 250.384 38.864 249.592 38.864Z" fill="#333333"/>
<path d="M250.672 60.2C252.432 60.2 253.792 60.712 254.88 61.8C256.048 62.968 256.672 64.712 256.672 66.792C256.672 70.84 254.32 73.464 250.688 73.464C247.056 73.464 244.72 70.856 244.72 66.792C244.72 64.728 245.36 62.952 246.544 61.8C247.648 60.712 248.976 60.2 250.672 60.2ZM250.72 71.56C253.008 71.56 254.432 69.736 254.432 66.792C254.432 65.176 253.984 63.88 253.168 63.064C252.512 62.424 251.664 62.088 250.704 62.088C248.4 62.088 246.944 63.912 246.944 66.808C246.944 68.408 247.408 69.752 248.24 70.584C248.896 71.224 249.744 71.56 250.72 71.56ZM260.798 67.688V70.888C260.798 72.024 260.83 72.584 260.926 73.192H258.542C258.638 72.648 258.67 71.976 258.67 70.92V62.488C258.67 61.608 258.638 61.144 258.542 60.408C259.198 60.44 259.598 60.456 260.574 60.456H265.054C266.062 60.456 266.574 60.424 267.246 60.344V62.504C266.67 62.424 266.078 62.392 265.054 62.392H260.798V65.784H264.222C265.214 65.784 265.774 65.752 266.398 65.672V67.8C265.806 67.72 265.198 67.688 264.222 67.688H260.798ZM271.095 67.688V70.888C271.095 72.024 271.127 72.584 271.223 73.192H268.839C268.935 72.648 268.967 71.976 268.967 70.92V62.488C268.967 61.608 268.935 61.144 268.839 60.408C269.495 60.44 269.895 60.456 270.871 60.456H275.351C276.359 60.456 276.871 60.424 277.543 60.344V62.504C276.967 62.424 276.375 62.392 275.351 62.392H271.095V65.784H274.519C275.511 65.784 276.071 65.752 276.695 65.672V67.8C276.103 67.72 275.495 67.688 274.519 67.688H271.095Z" fill="#333333"/>
<path d="M161.214 63.442L168.936 61.93C169.638 64.414 170.124 65.278 171.474 66.358C173.256 67.762 175.416 68.464 178.008 68.464C183.354 68.464 186.756 65.71 186.756 61.444C186.756 58.96 185.676 56.908 183.732 55.774C182.436 55.018 179.898 54.478 177.522 54.478C175.146 54.478 173.58 54.532 171.744 54.748V48.052C173.472 48.268 174.66 48.322 176.982 48.322C182.382 48.322 185.568 45.838 185.568 41.68C185.568 37.954 183.03 35.848 178.44 35.848C175.794 35.848 173.85 36.442 172.554 37.522C171.474 38.548 170.934 39.466 170.286 41.68L162.564 40.384C163.914 36.388 165.156 34.498 167.694 32.662C170.448 30.664 173.958 29.692 178.278 29.692C187.296 29.692 193.128 34.228 193.128 41.248C193.128 44.488 191.724 47.458 189.402 49.186C188.214 50.104 187.026 50.536 184.164 51.292C187.998 51.886 189.996 52.804 191.886 54.91C193.668 56.908 194.478 59.176 194.478 62.362C194.478 65.278 193.236 68.248 191.238 70.246C188.268 73.108 183.732 74.62 177.954 74.62C171.636 74.62 167.316 73 164.238 69.49C162.888 67.978 162.186 66.574 161.214 63.442ZM216.613 74.512C212.023 74.512 208.135 73 205.273 70.138C203.653 68.518 202.411 66.628 201.709 64.684C200.305 60.85 199.603 56.638 199.603 52.264C199.603 46.54 200.899 40.6 202.897 37.306C205.813 32.446 210.673 29.8 216.667 29.8C221.257 29.8 225.199 31.312 228.061 34.174C229.681 35.794 230.923 37.684 231.625 39.628C233.029 43.408 233.731 47.728 233.731 52.156C233.731 58.798 232.273 64.63 229.735 68.14C226.711 72.352 222.229 74.512 216.613 74.512ZM216.667 68.248C219.043 68.248 221.149 67.438 222.499 65.98C224.929 63.442 226.279 58.42 226.279 52.102C226.279 45.838 224.929 40.924 222.499 38.278C221.203 36.82 219.043 36.01 216.613 36.01C214.021 36.01 212.131 36.874 210.565 38.764C208.189 41.572 207.001 46 207.001 51.886C207.001 57.556 208.027 62.254 209.755 64.738C211.429 67.114 213.697 68.248 216.667 68.248Z" fill="#333333"/>
<defs>
<linearGradient id="paint0_linear_94_162" x1="20.5" y1="-33.5" x2="315.5" y2="132" gradientUnits="userSpaceOnUse">
<stop stop-color="#FFCE7B"/>
<stop offset="1" stop-color="#FAA755"/>
</linearGradient>
</defs>
</svg>
