<svg width="101" height="26" viewBox="0 0 101 26" fill="none" xmlns="http://www.w3.org/2000/svg">
<path d="M24.6962 23.7644C26.6872 23.7644 28.4161 22.6937 29.6137 21.1084C30.811 19.5236 31.5222 17.3792 31.5222 15.0525C31.5222 12.7257 30.811 10.5813 29.6137 8.99655C28.4161 7.41121 26.6872 6.34058 24.6962 6.34058C22.7052 6.34058 20.9763 7.41121 19.7786 8.99655C18.5814 10.5813 17.8701 12.7257 17.8701 15.0525C17.8701 17.3792 18.5814 19.5236 19.7786 21.1084C20.9763 22.6937 22.7052 23.7644 24.6962 23.7644Z" fill="white" stroke="white" stroke-width="2" stroke-linejoin="round"/>
<path d="M38.5902 24.049C40.5812 24.049 42.3101 22.9784 43.5078 21.393C44.705 19.8083 45.4163 17.6639 45.4163 15.3371C45.4163 13.0104 44.705 10.866 43.5078 9.28122C42.3101 7.69588 40.5812 6.62524 38.5902 6.62524C36.5992 6.62524 34.8703 7.69588 33.6727 9.28122C32.4754 10.866 31.7642 13.0104 31.7642 15.3371C31.7642 17.6639 32.4754 19.8083 33.6727 21.393C34.8703 22.9784 36.5992 24.049 38.5902 24.049Z" fill="white" stroke="white" stroke-width="2" stroke-linejoin="round"/>
<path d="M7.45477 10.9427C7.75891 10.7799 8.27522 10.7285 8.91917 10.8103C9.53329 10.8882 10.0927 11.0649 10.3433 11.1669C10.8507 11.3733 11.4298 11.133 11.642 10.628L12.3703 8.89473C12.4736 8.64895 12.4744 8.37212 12.3727 8.12571C12.2709 7.8793 12.075 7.68371 11.8284 7.58239C11.6291 7.50051 10.7463 7.15522 9.60471 6.98628C8.48038 6.8199 6.96756 6.80394 5.61058 7.52816L5.60992 7.52851C4.656 8.03854 3.49581 9.09398 3.09831 11.1365C3.00987 11.5335 2.89784 12.4555 3.37464 13.5487C3.86555 14.6744 4.92093 15.8448 6.94226 16.793L6.94256 16.7931C8.24157 17.4019 8.73605 17.8619 8.93604 18.153C9.10351 18.3968 9.12344 18.5907 9.1375 19.0319V19.1183C9.1316 19.1362 9.1187 19.1711 9.09254 19.2241C9.03326 19.3442 8.93358 19.4984 8.79433 19.6544C8.50936 19.9735 8.13909 20.2139 7.7393 20.2733L7.73877 20.2734C7.32504 20.3351 6.75347 20.2579 6.15545 20.0939C5.57506 19.9348 5.07809 19.7246 4.86299 19.6171C4.37306 19.3723 3.77733 19.5671 3.52674 20.0541L2.6655 21.7279C2.54176 21.9683 2.5207 22.2487 2.60712 22.505C2.69354 22.7612 2.88007 22.9715 3.12416 23.088C3.124 23.0879 3.12471 23.0882 3.13343 23.0925L3.16061 23.1055C3.18298 23.1163 3.21259 23.1303 3.24888 23.1472C3.3214 23.1809 3.41985 23.2255 3.54052 23.2771C3.78132 23.3802 4.11263 23.5125 4.505 23.6433C5.25597 23.8936 6.28018 24.1555 7.34307 24.1702C7.37185 24.1728 7.40095 24.174 7.43028 24.174C7.72807 24.174 8.01928 24.1514 8.30328 24.1108L8.30328 24.1108L8.3094 24.1099C9.69498 23.903 10.876 23.1568 11.6985 22.2472C12.5005 21.3602 13.0613 20.2025 13.0278 19.075V18.9661C13.0278 18.9574 13.0277 18.9487 13.0275 18.94C13.0065 18.1375 12.9009 17.1347 12.2315 16.1012C11.5722 15.083 10.4415 14.149 8.60237 13.2867C7.55011 12.7922 7.15309 12.3508 7.008 12.1222C6.94706 12.0262 6.92382 11.9575 6.91523 11.9212L6.9153 11.9209C6.91742 11.9113 6.91939 11.9017 6.92123 11.8921C7.03935 11.2728 7.25472 11.0511 7.45477 10.9427ZM6.91047 11.8915C6.91059 11.8915 6.91086 11.8937 6.9109 11.8981C6.91038 11.8938 6.91035 11.8916 6.91047 11.8915Z" fill="#FAA755" stroke="white" stroke-width="2" stroke-linejoin="round"/>
<path d="M22.7207 16.0711C23.9541 16.0711 24.9745 15.08 24.9745 13.8322C24.9745 12.5844 23.9541 11.5933 22.7207 11.5933C21.4872 11.5933 20.4668 12.5844 20.4668 13.8322C20.4668 15.08 21.4872 16.0711 22.7207 16.0711Z" fill="#40D2FF" stroke="white" stroke-width="2" stroke-linejoin="round"/>
<path d="M27.4638 16.0711C28.6973 16.0711 29.7177 15.08 29.7177 13.8322C29.7177 12.5844 28.6973 11.5933 27.4638 11.5933C26.2304 11.5933 25.21 12.5844 25.21 13.8322C25.21 15.08 26.2304 16.0711 27.4638 16.0711Z" fill="#40D2FF" stroke="white" stroke-width="2" stroke-linejoin="round"/>
<path d="M36.4594 15.4422C37.6929 15.4422 38.7133 14.4511 38.7133 13.2033C38.7133 11.9555 37.6929 10.9644 36.4594 10.9644C35.226 10.9644 34.2056 11.9555 34.2056 13.2033C34.2056 14.4511 35.226 15.4422 36.4594 15.4422Z" fill="#40D2FF" stroke="white" stroke-width="2" stroke-linejoin="round"/>
<path d="M41.1137 16.3338C42.3472 16.3338 43.3676 15.3427 43.3676 14.0949C43.3676 12.8471 42.3472 11.856 41.1137 11.856C39.8803 11.856 38.8599 12.8471 38.8599 14.0949C38.8599 15.3427 39.8803 16.3338 41.1137 16.3338Z" fill="#40D2FF" stroke="white" stroke-width="2" stroke-linejoin="round"/>
<path d="M60.0906 24.5838C60.085 24.5839 60.0794 24.5839 60.0738 24.5839L60.0906 24.5838ZM60.0906 24.5838C60.8846 24.5743 61.6374 24.0765 61.9127 23.2697C61.913 23.269 61.9132 23.2683 61.9134 23.2677L65.5726 12.637L69.1734 23.2635L69.1743 23.2659C69.523 24.2867 70.6295 24.8133 71.6348 24.4843L71.6348 24.4843L71.6402 24.4825C72.6505 24.1455 73.2197 23.052 72.869 22.0231C72.8688 22.0227 72.8687 22.0222 72.8685 22.0217L67.4359 5.9841C67.2984 5.57812 66.9174 5.30493 66.4888 5.30493H64.6903C64.2634 5.30493 63.8836 5.57589 63.7447 5.97952L58.2258 22.0165L58.2251 22.0186C57.8763 23.0394 58.4308 24.1412 59.4482 24.4818C59.6511 24.5504 59.8558 24.5816 60.0513 24.5838C60.0567 24.5839 60.0621 24.5839 60.0674 24.5839L60.0906 24.5838Z" fill="#FAA755" stroke="white" stroke-width="2" stroke-linejoin="round"/>
<path d="M38.8482 9.19778C38.686 9.20398 38.4121 9.22347 38.0402 9.39709C37.6455 9.58131 37.0798 9.96849 36.4289 10.8154L38.8482 9.19778ZM38.8482 9.19778C39.0845 9.22302 40.127 9.40348 40.9861 10.6536L40.9861 10.6537C41.7239 11.7272 42.1359 12.5812 42.3723 13.3729C42.6086 14.1644 42.6852 14.945 42.6942 15.9033L42.6943 15.9042C42.7049 16.9352 42.6273 17.6311 42.4625 18.1718C42.3049 18.6892 42.0526 19.1129 41.6306 19.5728L41.6294 19.5741C41.3055 19.9284 40.732 20.2411 40.0913 20.4681C39.7854 20.5766 39.4927 20.6554 39.2533 20.7063C39.1339 20.7317 39.0324 20.7491 38.9533 20.7598C38.9139 20.7652 38.8825 20.7685 38.8592 20.7705C38.8381 20.7722 38.828 20.7724 38.8272 20.7724C38.8253 20.7724 38.8151 20.7722 38.7953 20.771C38.774 20.7697 38.7457 20.7674 38.7107 20.7638C38.6404 20.7565 38.5492 20.7443 38.4411 20.7256C38.2244 20.6881 37.9517 20.6262 37.6556 20.5306C37.0525 20.336 36.414 20.0217 35.9334 19.5469L35.9324 19.5459C35.557 19.176 35.2584 18.5649 35.0742 17.8489C34.8923 17.1415 34.855 16.4601 34.9005 16.0525C34.9142 15.937 34.9275 15.8085 34.9404 15.6712C35.0711 14.358 35.3023 12.282 36.4288 10.8156L38.8482 9.19778ZM38.8244 24.6465C38.8573 24.6465 38.8899 24.6449 38.922 24.6417C39.4731 24.6246 40.395 24.4674 41.3637 24.1302C42.3974 23.7703 43.6059 23.164 44.5075 22.1789C46.2952 20.2276 46.6076 18.206 46.5876 15.8635C46.5672 13.4222 46.1397 11.2856 44.2019 8.46375L44.2016 8.46325C42.0655 5.35665 39.0561 5.31738 38.8149 5.31738H38.7896C38.7783 5.31738 38.7671 5.31757 38.7559 5.31795C36.6105 5.39013 34.8308 6.50321 33.3298 8.45453L33.3297 8.45466C31.5035 10.8294 31.1976 13.8788 31.0616 15.2339C31.0599 15.2506 31.0583 15.2671 31.0567 15.2832C31.0508 15.3413 31.0463 15.3885 31.0424 15.4294C31.0361 15.4968 31.0313 15.5469 31.0247 15.5994L31.0229 15.6144C30.9286 16.4617 30.9788 17.6257 31.2827 18.8132C31.5867 20.0015 32.1636 21.2848 33.1814 22.2923C34.1763 23.2772 35.3786 23.8596 36.4034 24.1964C37.4213 24.531 38.3358 24.6465 38.8244 24.6465Z" fill="#FAA755" stroke="white" stroke-width="2" stroke-linejoin="round"/>
<path d="M73.7723 10.5903C73.7722 10.5909 73.7721 10.5915 73.7721 10.592L71.8637 22.2681C71.8636 22.2687 71.8635 22.2693 71.8634 22.2699C71.6863 23.339 72.4222 24.3227 73.4668 24.4944C73.5897 24.5161 73.6998 24.5212 73.7874 24.5212C74.721 24.5212 75.5531 23.8531 75.7112 22.8958L75.7115 22.8941L77.6203 11.2151C77.6204 11.2146 77.6205 11.214 77.6206 11.2134C77.7983 10.1407 77.0569 9.15401 76.0068 8.98715C74.9548 8.81735 73.9448 9.52117 73.7723 10.5903Z" fill="#FFCE7B" stroke="white" stroke-width="2" stroke-linejoin="round"/>
<path d="M85.4836 24.5026C85.522 24.5026 85.5599 24.5004 85.5971 24.4962C86.6121 24.438 87.4335 23.6051 87.4335 22.5609V5.56967C87.4335 4.48676 86.5501 3.6311 85.4836 3.6311C84.417 3.6311 83.5337 4.48676 83.5337 5.56967V22.564C83.5337 23.6469 84.417 24.5026 85.4836 24.5026Z" fill="#FAA755" stroke="white" stroke-width="2" stroke-linejoin="round"/>
<path d="M80.5157 23.7673L80.4963 23.7671C79.0228 23.7385 77.6294 22.9572 76.6246 21.7483L76.6243 21.7479C75.8262 20.7866 74.9299 19.1291 74.9087 16.5879L80.5157 23.7673ZM80.5157 23.7673H80.5158H80.516H80.5161H80.5163H80.5164H80.5166H80.5167H80.5169H80.517H80.5172H80.5173H80.5175H80.5176H80.5178H80.5179H80.5181H80.5182H80.5184H80.5185H80.5187H80.5188H80.519H80.5191H80.5193H80.5194H80.5196H80.5197H80.5199H80.52H80.5202H80.5203H80.5205H80.5206H80.5208H80.5209H80.5211H80.5212H80.5214H80.5215H80.5217H80.5218H80.522H80.5221C80.5483 23.7694 80.5747 23.7704 80.6012 23.7704C82.7184 23.7704 86.2953 22.384 86.9149 18.4327C86.9228 18.3824 86.9268 18.3315 86.927 18.2805L86.9396 13.5908C86.9401 13.4174 86.8954 13.2468 86.8101 13.0958M80.5157 23.7673L86.8101 13.0958M86.8101 13.0958L86.691 12.8853C86.6908 12.8849 86.6905 12.8845 86.6903 12.8841M86.8101 13.0958L86.6903 12.8841M76.4139 11.2938C77.4569 9.91782 78.9853 9.12724 80.8159 9.0567L76.4139 11.2938ZM76.4139 11.2938C75.3892 12.6456 74.89 14.4828 74.9087 16.5873L76.4139 11.2938ZM86.6903 12.8841C86.6251 12.7683 86.0776 11.8191 85.1248 10.8998C84.1786 9.98693 82.705 8.98375 80.816 9.0567L86.6903 12.8841ZM78.8053 16.5515L78.8053 16.5514C78.7936 15.2348 79.0533 14.3217 79.4319 13.7595C79.7787 13.2445 80.2624 12.9611 80.9452 12.93H80.9452H80.9454H80.9455H80.9457H80.9458H80.946H80.9461H80.9463H80.9464H80.9466H80.9467H80.9469H80.947H80.9472H80.9473H80.9475H80.9476H80.9478H80.9479H80.948H80.9482H80.9483H80.9485H80.9486H80.9488H80.9489H80.9491H80.9492H80.9494H80.9495H80.9497H80.9498H80.95H80.9501H80.9503H80.9504H80.9506H80.9507H80.9509H80.951H80.9512H80.9513H80.9515H80.9516H80.9518H80.9519H80.9521H80.9522H80.9524H80.9525H80.9526H80.9528H80.9529H80.9531H80.9532H80.9534H80.9535H80.9537H80.9538H80.954H80.9541H80.9543H80.9544H80.9546H80.9547H80.9549H80.955H80.9552H80.9553H80.9555H80.9556H80.9558H80.9559H80.9561H80.9562H80.9564H80.9565H80.9567H80.9568H80.957H80.9571H80.9572H80.9574H80.9575H80.9577H80.9578H80.958H80.9581H80.9583H80.9584H80.9586H80.9587H80.9589H80.959H80.9592H80.9593H80.9595H80.9596H80.9598H80.9599H80.9601H80.9602H80.9604H80.9605H80.9607H80.9608H80.961H80.9611H80.9613H80.9614H80.9616H80.9617H80.9619H80.962H80.9621H80.9623H80.9624H80.9626H80.9627H80.9629H80.963H80.9632H80.9633H80.9635H80.9636H80.9638H80.9639H80.9641H80.9642H80.9644H80.9645H80.9647H80.9648H80.965H80.9651H80.9653H80.9654H80.9656H80.9657H80.9659H80.966H80.9662H80.9663H80.9665H80.9666H80.9667H80.9669H80.967H80.9672H80.9673H80.9675H80.9676H80.9678H80.9679H80.9681H80.9682H80.9684H80.9685H80.9687H80.9688H80.969H80.9691H80.9693H80.9694H80.9696H80.9697H80.9699H80.97H80.9702H80.9703H80.9705H80.9706H80.9708H80.9709H80.9711H80.9712H80.9714H80.9715H80.9716H80.9718H80.9719H80.9721H80.9722H80.9724H80.9725H80.9727H80.9728H80.973H80.9731H80.9733H80.9734H80.9736H80.9737H80.9739H80.974H80.9742H80.9743H80.9745H80.9746H80.9748H80.9749H80.9751H80.9752H80.9754H80.9755H80.9757H80.9758H80.976H80.9761H80.9762H80.9764H80.9765H80.9767H80.9768H80.977H80.9771H80.9773H80.9774H80.9776H80.9777H80.9779H80.978H80.9782H80.9783H80.9785H80.9786H80.9788H80.9789H80.9791H80.9792H80.9794H80.9795H80.9797H80.9798H80.98H80.9801H80.9803H80.9804H80.9806H80.9807H80.9808H80.981H80.9811H80.9813H80.9814H80.9816H80.9817H80.9819H80.982H80.9822H80.9823H80.9825H80.9826H80.9828H80.9829H80.9831H80.9832H80.9834H80.9835H80.9837H80.9838H80.984H80.9841H80.9843H80.9844H80.9846H80.9847H80.9849H80.985H80.9852H80.9853H80.9855H80.9856H80.9857H80.9859H80.986H80.9862H80.9863H80.9865H80.9866H80.9868H80.9869H80.9871H80.9872H80.9874H80.9875H80.9877H80.9878H80.988H80.9881H80.9883H80.9884H80.9886H80.9887H80.9889H80.989H80.9892H80.9893H80.9895H80.9896H80.9898H80.9899H80.9901H80.9902H80.9903H80.9905H80.9906H80.9908H80.9909H80.9911H80.9912H80.9914H80.9915H80.9917H80.9918H80.992H80.9921H80.9923H80.9924H80.9926H80.9927H80.9929H80.993H80.9932H80.9933H80.9935H80.9936H80.9938H80.9939H80.9941H80.9942H80.9944H80.9945H80.9947H80.9948H80.9949H80.9951H80.9952H80.9954H80.9955H80.9957H80.9958H80.996H80.9961H80.9963H80.9964H80.9966H80.9967H80.9969H80.997H80.9972H80.9973H80.9975H80.9976H80.9978H80.9979H80.9981H80.9982H80.9984H80.9985H80.9987H80.9988H80.999H80.9991H80.9993H80.9994H80.9996H80.9997H80.9998H81H81.0001C81.3367 12.93 81.7495 13.1132 82.1985 13.492C82.5351 13.7761 82.8254 14.1147 83.0335 14.3992V17.9618C82.8849 18.6811 82.4708 19.1464 81.9816 19.4514C81.4458 19.7853 80.863 19.8954 80.5721 19.8904C80.2369 19.8808 78.828 19.1705 78.8053 16.5515Z" fill="#FAA755" stroke="white" stroke-width="2" stroke-linejoin="round"/>
<path d="M83.0485 11.466C84.4638 11.466 85.6317 10.3292 85.6317 8.90168C85.6317 7.47419 84.4638 6.3374 83.0485 6.3374C81.6332 6.3374 80.4653 7.47419 80.4653 8.90168C80.4653 10.3292 81.6332 11.466 83.0485 11.466Z" fill="#FFCE7B" stroke="white" stroke-width="2" stroke-linejoin="round"/>
<path d="M94.9697 11.6809C94.648 11.6809 94.346 11.8357 94.1581 12.0968C93.9702 12.3579 93.9193 12.6935 94.0215 12.9985L94.7466 15.1635C94.8733 15.5417 95.2127 15.8085 95.6102 15.8423C96.0077 15.876 96.3873 15.6703 96.5759 15.3188L97.738 13.1538C97.9043 12.8439 97.8956 12.4694 97.715 12.1676C97.5345 11.8657 97.2086 11.6809 96.8569 11.6809H94.9697Z" fill="#FFCE7B" stroke="white" stroke-width="2" stroke-linejoin="round"/>
<path d="M95.6243 15.9787C95.6436 15.9798 95.663 15.9804 95.6823 15.9804H95.6823H95.6824H95.6824H95.6825H95.6825H95.6825H95.6826H95.6826H95.6826H95.6827H95.6827H95.6828H95.6828H95.6828H95.6829H95.6829H95.6829H95.683H95.683H95.683H95.6831H95.6831H95.6832H95.6832H95.6832H95.6833H95.6833H95.6833H95.6834H95.6834H95.6835H95.6835H95.6835H95.6836H95.6836H95.6836H95.6837H95.6837H95.6837H95.6838H95.6838H95.6839H95.6839H95.6839H95.684H95.684H95.684H95.6841H95.6841H95.6842H95.6842H95.6842H95.6843H95.6843H95.6843H95.6844H95.6844H95.6844H95.6845H95.6845H95.6846H95.6846H95.6846H95.6847H95.6847H95.6847H95.6848H95.6848H95.6849H95.6849H95.6849H95.685H95.685H95.685H95.6851H95.6851H95.6851H95.6852H95.6852H95.6853H95.6853H95.6853H95.6854H95.6854H95.6854H95.6855H95.6855H95.6855H95.6856H95.6856H95.6856H95.6857H95.6857H95.6858H95.6858H95.6858H95.6859H95.6859H95.6859H95.686H95.686H95.686H95.6861H95.6861H95.6861H95.6862H95.6862H95.6863H95.6863H95.6863H95.6864H95.6864H95.6864H95.6865H95.6865H95.6865H95.6866H95.6866H95.6866H95.6867H95.6867H95.6867H95.6868H95.6868H95.6869H95.6869H95.6869H95.687H95.687H95.687H95.6871H95.6871H95.6871H95.6872H95.6872H95.6872H95.6873H95.6873H95.6873H95.6874H95.6874H95.6874H95.6875H95.6875H95.6875H95.6876H95.6876H95.6876H95.6877H95.6877H95.6877H95.6878H95.6878H95.6878H95.6879H95.6879H95.6879H95.688H95.688H95.688H95.6881H95.6881H95.6882H95.6882H95.6882H95.6883H95.6883H95.6883H95.6883H95.6884H95.6884H95.6884H95.6885H95.6885H95.6885H95.6886H95.6886H95.6886H95.6887H95.6887H95.6887H95.6888H95.6888H95.6888H95.6889H95.6889H95.6889H95.689H95.689H95.689H95.6891H95.6891H95.6891H95.6892H95.6892H95.6892H95.6893H95.6893H95.6893H95.6894H95.6894H95.6894H95.6894H95.6895H95.6895H95.6895H95.6896H95.6896H95.6896H95.6897H95.6897H95.6897H95.6898H95.6898H95.6898H95.6898H95.6899H95.6899H95.6899H95.69H95.69H95.69H95.6901H95.6901H95.6901H95.6901H95.6902H95.6902H95.6902H95.6903H95.6903H95.6903H95.6904H95.6904H95.6904H95.6904H95.6905H95.6905H95.6905H95.6906H95.6906H95.6906H95.6906H95.6907H95.6907H95.6907H95.6908H95.6908H95.6908H95.6908H95.6909H95.6909H95.6909H95.691H95.691H95.691H95.691H95.6911H95.6911H95.6911H95.6912H95.6912H95.6912H95.6912H95.6913H95.6913H95.6913H95.6913H95.6914H95.6914H95.6914H95.6915H95.6915H95.6915H95.6915H95.6916H95.6916H95.6916H95.6916H95.6917H95.6917H95.6917H95.6917H95.6918H95.6918H95.6918H95.6918H95.6919H95.6919H95.6919H95.6919H95.692H95.692H95.692H95.692H95.6921H95.6921H95.6921H95.6921H95.6922H95.6922H95.6922H95.6922H95.6923H95.6923H95.6923H95.6923H95.6924H95.6924H95.6924H95.6924H95.6925H95.6925H95.6925H95.6925H95.6925H95.6926H95.6926H95.6926H95.6926H95.6927H95.6927H95.6927H95.6927H95.6927H95.6928H95.6928H95.6928H95.6928H95.6929H95.6929H95.6929H95.6929H95.6929H95.693H95.693H95.693H95.693H95.693H95.6931H95.6931H95.6931H95.6931H95.6932H95.6932H95.6932H95.6932H95.6932H95.6933H95.6933H95.6933H95.6933H95.6933H95.6934H95.6934H95.6934H95.6934H95.6934H95.6934H95.6935H95.6935H95.6935H95.6935H95.6935H95.6936H95.6936H95.6936H95.6936H95.6936H95.6936H95.6937H95.6937H95.6937H95.6937H95.6937H95.6938H95.6938H95.6938H95.6938H95.6938H95.6938H95.6939H95.6939H95.6939H95.6939H95.6939H95.6939H95.6939H95.694H95.694H95.694H95.694H95.694H95.694H95.6941H95.6941H95.6941H95.6941H95.6941H95.6941H95.6941H95.6942H95.6942H95.6942H95.6942H95.6942H95.6942H95.6942H95.6943H95.6943H95.6943H95.6943H95.6943H95.6943H95.6943H95.6943H95.6944H95.6944H95.6944H95.6944H95.6944H95.6944H95.6944H95.6944H95.6945H95.6945H95.6945H95.6945H95.6945H95.6945H95.6945H95.6945H95.6945H95.6946H95.6946H95.6946H95.6946H95.6946H95.6946H95.6946H95.6946H95.6946H95.6946H95.6947H95.6947H95.6947H95.6947H95.6947H95.6947H95.6947H95.6947H95.6947H95.6947H95.6947H95.6947H95.6948H95.6948H95.6948H95.6948H95.6948H95.6948H95.6948H95.6948H95.6948H95.6948H95.6948H95.6948H95.6948H95.6948H95.6948H95.6949H95.6949H95.6949H95.6949H95.6949H95.6949H95.6949H95.6949H95.6949H95.6949H95.6949H95.6949H95.6949H95.6949H95.6949H95.6949H95.6949H95.6949H95.6949H95.6949H95.6949H95.6949H95.6949H95.695H95.695H95.695H95.695H95.695H95.695H95.695H95.695H95.695H95.695H95.695C96.1375 15.9804 96.495 15.7306 96.681 15.4091C96.6862 15.3999 96.6914 15.3907 96.6964 15.3814L97.8577 13.2178C98.0414 12.8772 98.0474 12.4436 97.823 12.0834L97.823 12.0834C97.6191 11.7561 97.2574 11.5464 96.857 11.5464H94.9667C94.5938 11.5464 94.2579 11.7282 94.0505 12.0099C94.0424 12.0209 94.0346 12.0321 94.0269 12.0434C93.8366 12.3255 93.7767 12.6835 93.8821 13.022L93.8891 13.0435L94.6159 15.2042C94.7602 15.642 95.16 15.9517 95.6243 15.9787Z" fill="#FFCE7B" stroke="white" stroke-width="2" stroke-linejoin="round"/>
<path d="M95.9133 21.9528C96.2643 21.9528 96.5896 21.7688 96.7704 21.4679C96.9512 21.1671 96.961 20.7935 96.7963 20.4835L96.068 19.1132C95.9124 18.8204 95.6218 18.6238 95.2922 18.5883C94.9626 18.5527 94.6367 18.6829 94.4223 18.9358L93.2603 20.3061C93.0083 20.6032 92.9518 21.0196 93.1155 21.3731C93.2793 21.7266 93.6334 21.9528 94.0229 21.9528H95.9133Z" fill="#FFCE7B" stroke="white" stroke-width="2" stroke-linejoin="round"/>
<path d="M95.9134 22.0591C95.9813 22.0591 96.0488 22.0522 96.1149 22.0386C96.4115 21.9855 96.6923 21.8115 96.8663 21.525C96.8797 21.5029 96.8922 21.4804 96.9038 21.4574C97.0392 21.1899 97.0933 20.8019 96.8925 20.4296L96.1663 19.0631C96.1574 19.0462 96.1479 19.0296 96.138 19.0133C95.9792 18.7518 95.6837 18.5157 95.2873 18.4801L95.2873 18.48L95.2798 18.4794C94.981 18.4548 94.6013 18.5503 94.3339 18.8742L93.1835 20.2308C92.8965 20.5618 92.8264 21.0405 93.0327 21.4481C93.2071 21.7928 93.5733 22.0591 94.0231 22.0591H95.9134Z" fill="#FFCE7B" stroke="white" stroke-width="2" stroke-linejoin="round"/>
<path d="M92.7077 23.7644C94.5968 23.7632 96.2016 23.1147 96.3746 23.0414C97.3586 22.6293 97.8366 21.4934 97.409 20.4968C96.9874 19.5097 95.843 19.0575 94.8583 19.4709C94.8394 19.4788 94.8208 19.4873 94.8024 19.4964C94.8348 19.4803 94.8323 19.4813 94.795 19.4947C94.7485 19.5115 94.6483 19.5476 94.4945 19.5948C94.2468 19.6707 93.9052 19.7608 93.5229 19.8219C92.7098 19.9519 91.9296 19.9158 91.4126 19.5976L91.4125 19.5976C90.934 19.3031 90.4861 18.593 90.3986 17.0664L90.3985 17.0641C90.3314 15.9371 90.4197 15.0013 90.6308 14.2402L97.7312 13.6969C98.0695 13.671 98.3715 13.4754 98.5335 13.1774L99.2903 11.7852C99.4546 11.4829 99.452 11.1174 99.2833 10.8175C99.1813 10.6361 98.7231 9.85848 97.963 9.10612C97.2141 8.3648 96.0537 7.53264 94.5578 7.49533V7.49532L94.5551 7.49526C93.7671 7.4778 90.9623 7.56407 88.81 9.75938L92.7077 23.7644ZM89.3647 22.8938C90.455 23.5634 91.653 23.764 92.7028 23.7644L86.5085 17.2878C86.653 19.7886 87.5449 21.7764 89.3646 22.8938L89.3647 22.8938ZM88.8097 9.75971C87.0366 11.567 86.3276 14.1654 86.5085 17.2876L88.8097 9.75971Z" fill="#FAA755" stroke="white" stroke-width="2" stroke-linejoin="round"/>
<path d="M26.7339 11.6169C26.9596 11.188 26.8886 10.6866 26.5989 10.34C26.8719 10.1745 27.0889 9.89265 27.1448 9.52421C27.2109 9.08858 27.0267 8.632 26.6253 8.37525C26.6252 8.37523 26.6252 8.3752 26.6251 8.37517L24.1754 6.80839C23.6318 6.45971 22.9248 6.62798 22.5827 7.14634C22.2165 7.70107 22.401 8.41725 22.9231 8.75368L22.9231 8.75368L22.9261 8.75561L23.1761 8.91545C22.7584 9.05686 22.4415 9.4312 22.3965 9.89763C22.3544 10.335 22.5664 10.82 23.0393 11.0489L25.1929 12.116C25.2106 12.1248 25.2287 12.1331 25.2469 12.1408C25.3064 12.166 25.3869 12.1949 25.485 12.2141C25.5562 12.2302 25.6304 12.2387 25.7065 12.2387C26.1608 12.2387 26.5402 11.9784 26.7304 11.6234L26.7305 11.6234L26.7339 11.6169ZM23.094 8.49088L23.095 8.49147L23.094 8.49088Z" fill="#999999" stroke="white" stroke-width="2" stroke-linejoin="round"/>
<path d="M24.8102 24.5464C24.8432 24.5464 24.8757 24.5448 24.9079 24.5416C25.4589 24.5245 26.3808 24.3673 27.3495 24.0301C28.3832 23.6702 29.5917 23.0639 30.4934 22.0788C32.2804 20.1282 32.5967 18.1073 32.5735 15.7626C32.5529 13.3216 32.1254 11.1852 30.1878 8.36365L30.1874 8.36316C29.1266 6.82035 27.8382 6.02943 26.782 5.62939C25.738 5.23395 24.8992 5.22208 24.9099 5.22326C24.8736 5.21928 24.8372 5.21729 24.8007 5.21729H24.7754C24.7642 5.21729 24.753 5.21747 24.7418 5.21785C22.5964 5.29003 20.8166 6.40311 19.3156 8.35444L19.3155 8.35456C17.4893 10.7293 17.1834 13.7788 17.0475 15.1338C17.0458 15.1505 17.0441 15.167 17.0425 15.1831C17.0366 15.2412 17.0322 15.2884 17.0283 15.3293C17.0219 15.3967 17.0172 15.4468 17.0105 15.4993L17.0087 15.5143C16.9145 16.3616 16.9647 17.5256 17.2685 18.7131C17.5726 19.9014 18.1494 21.1847 19.1672 22.1922C20.1622 23.1771 21.3644 23.7595 22.3892 24.0963C23.4072 24.4309 24.3216 24.5464 24.8102 24.5464ZM21.9193 19.4437L21.9183 19.4427C21.5428 19.0727 21.2442 18.4617 21.0601 17.7456C20.8781 17.0383 20.8408 16.3569 20.8863 15.9493C20.9 15.8338 20.9133 15.7053 20.9262 15.568C21.0569 14.2548 21.2882 12.1787 22.4146 10.7123C23.0656 9.86532 23.6313 9.47809 24.026 9.29386C24.3812 9.12809 24.6469 9.10283 24.8114 9.09549C24.9937 9.11113 26.0814 9.25757 26.9719 10.5535L26.9723 10.5541C27.71 11.626 28.1218 12.479 28.3582 13.2702C28.5945 14.0612 28.6711 14.8418 28.6801 15.8001L28.6801 15.801C28.6907 16.8319 28.6131 17.527 28.4484 18.0672C28.2908 18.5843 28.0384 19.0084 27.6155 19.4706L27.6153 19.4709C27.2914 19.8252 26.7178 20.1379 26.0772 20.3649C25.7712 20.4733 25.4786 20.5522 25.2392 20.603C25.1197 20.6284 25.0183 20.6459 24.9391 20.6566C24.8997 20.662 24.8684 20.6653 24.845 20.6672C24.8239 20.669 24.8138 20.6692 24.8131 20.6692C24.8112 20.6692 24.8009 20.669 24.7811 20.6678C24.7598 20.6665 24.7316 20.6642 24.6965 20.6606C24.6263 20.6533 24.535 20.6411 24.427 20.6224C24.2103 20.5849 23.9376 20.523 23.6415 20.4274C23.0384 20.2327 22.3999 19.9185 21.9193 19.4437Z" fill="#FFCE7B" stroke="white" stroke-width="2" stroke-linejoin="round"/>
<path d="M22.4666 2C22.4666 1.44772 22.0189 1 21.4666 1H2.9499C1.88336 1 1 1.85566 1 2.93857C1 4.02147 1.88336 4.87713 2.9499 4.87713H13.336V23.0614C13.336 24.1443 14.2194 25 15.2859 25C16.3525 25 17.2358 24.1443 17.2358 23.0614V4.87713H21.4666C22.0189 4.87713 22.4666 4.42942 22.4666 3.87713V2Z" fill="#FAA755" stroke="white" stroke-width="2" stroke-linejoin="round"/>
<path d="M50.0418 9.24446C50.1915 9.06478 50.2734 8.83832 50.2734 8.60446V5.53848C50.2734 4.35546 49.3078 3.41846 48.1399 3.41846C46.972 3.41846 46.0063 4.35546 46.0063 5.53848V11.3263C46.0063 11.7474 46.2701 12.1233 46.666 12.2666C47.062 12.4099 47.5052 12.2898 47.7747 11.9663L50.0418 9.24446Z" fill="#FFCE7B" stroke="white" stroke-width="2" stroke-linejoin="round"/>
<path d="M48.5667 12.2204C48.544 12.2428 48.5223 12.2664 48.5016 12.2913L46.2346 15.0131C46.0849 15.1928 46.0029 15.4193 46.0029 15.6531V22.6141C46.0029 23.7972 46.9686 24.7342 48.1365 24.7342C49.3044 24.7342 50.27 23.7972 50.27 22.6141V16.491L50.7284 15.9477L55.6146 23.3199L55.6151 23.3207C56.0086 23.9132 56.658 24.2305 57.3157 24.2305C57.6882 24.2305 58.0815 24.1285 58.4311 23.8976C59.3696 23.2859 59.6353 22.0287 59.0133 21.0914C59.0025 21.0751 58.9913 21.0592 58.9797 21.0437L53.459 12.7125L57.6368 7.76008L57.6368 7.75999C58.3606 6.90185 58.2443 5.62088 57.3756 4.90461L57.3756 4.9046L57.3723 4.90191C56.514 4.20029 55.2424 4.30577 54.5189 5.16229L54.5184 5.16286L48.5667 12.2204Z" fill="#FFCE7B" stroke="white" stroke-width="2" stroke-linejoin="round"/>
<path d="M24.6962 22.7644C27.9138 22.7644 30.5222 19.3116 30.5222 15.0525C30.5222 10.7933 27.9138 7.34058 24.6962 7.34058C21.4785 7.34058 18.8701 10.7933 18.8701 15.0525C18.8701 19.3116 21.4785 22.7644 24.6962 22.7644Z" fill="white"/>
<path d="M38.5902 23.049C41.8079 23.049 44.4163 19.5963 44.4163 15.3371C44.4163 11.078 41.8079 7.62524 38.5902 7.62524C35.3726 7.62524 32.7642 11.078 32.7642 15.3371C32.7642 19.5963 35.3726 23.049 38.5902 23.049Z" fill="white"/>
<path d="M7.43662 23.1709C5.54631 23.1709 3.64651 22.2292 3.55469 22.1854L4.41593 20.5116C4.96054 20.7838 6.6482 21.4471 7.88624 21.2625C9.27626 21.056 10.1565 19.6607 10.1375 19.1507V19.0162C10.109 18.1026 10.0837 17.1609 7.36696 15.8876C3.66551 14.1513 3.96314 11.8361 4.07713 11.3418C4.40643 9.62738 5.35 8.80144 6.08142 8.41038C8.25036 7.25281 11.1286 8.37596 11.4484 8.50736L10.7201 10.2406C10.0742 9.97778 8.14588 9.43654 6.98066 10.0623C6.43605 10.3563 6.09409 10.8913 5.93894 11.7047L5.91677 11.8049C5.89144 11.9926 5.84712 13.097 8.17754 14.1919C11.6542 15.8219 11.9898 17.5113 12.0278 18.9661V19.0913C12.0848 20.6806 10.4035 22.7861 8.16171 23.1208C7.92107 23.1553 7.67726 23.174 7.43028 23.174L7.43662 23.1709Z" fill="#FAA755"/>
<path d="M22.7207 15.0711C23.4132 15.0711 23.9745 14.5164 23.9745 13.8322C23.9745 13.1479 23.4132 12.5933 22.7207 12.5933C22.0282 12.5933 21.4668 13.1479 21.4668 13.8322C21.4668 14.5164 22.0282 15.0711 22.7207 15.0711Z" fill="#40D2FF"/>
<path d="M27.4638 15.0711C28.1563 15.0711 28.7177 14.5164 28.7177 13.8322C28.7177 13.1479 28.1563 12.5933 27.4638 12.5933C26.7713 12.5933 26.21 13.1479 26.21 13.8322C26.21 14.5164 26.7713 15.0711 27.4638 15.0711Z" fill="#40D2FF"/>
<path d="M36.4594 14.4422C37.1519 14.4422 37.7133 13.8875 37.7133 13.2033C37.7133 12.519 37.1519 11.9644 36.4594 11.9644C35.7669 11.9644 35.2056 12.519 35.2056 13.2033C35.2056 13.8875 35.7669 14.4422 36.4594 14.4422Z" fill="#40D2FF"/>
<path d="M41.1137 15.3338C41.8062 15.3338 42.3676 14.7791 42.3676 14.0949C42.3676 13.4106 41.8062 12.856 41.1137 12.856C40.4212 12.856 39.8599 13.4106 39.8599 14.0949C39.8599 14.7791 40.4212 15.3338 41.1137 15.3338Z" fill="#40D2FF"/>
<path d="M60.0738 23.5839C59.9724 23.5839 59.868 23.5683 59.7666 23.5339C59.2695 23.3681 59.0035 22.8331 59.1714 22.3419L64.6903 6.30493H66.4888L71.9222 22.345C72.09 22.8362 71.8209 23.3681 71.3238 23.5339C70.8266 23.6966 70.2884 23.4338 70.1206 22.9426L65.58 9.54299L60.9667 22.9457C60.8337 23.3368 60.4632 23.5839 60.0674 23.5839H60.0738Z" fill="#FAA755"/>
<path d="M38.8244 23.6465C38.0835 23.6465 35.5884 23.2679 33.8849 21.5816C32.1814 19.8953 31.8553 17.1766 32.0168 15.7249C32.0294 15.6248 32.0389 15.5091 32.0516 15.3839C32.1877 14.0293 32.4695 11.2136 34.1224 9.06425C35.4966 7.27785 37.0227 6.37683 38.7896 6.31738H38.8149C38.9289 6.31738 41.5189 6.32677 43.3776 9.02984C45.1887 11.6672 45.5687 13.6038 45.5877 15.872C45.6067 18.0995 45.3122 19.8202 43.7702 21.5034C42.2757 23.1365 39.6191 23.6433 38.8244 23.6433V23.6465ZM38.8339 8.19764C38.3843 8.21329 37.1051 8.29463 35.6359 10.2062C34.3092 11.9331 34.0717 14.3015 33.9451 15.5748C33.9324 15.7093 33.9197 15.8313 33.9071 15.9377C33.7836 17.0327 34.1192 19.1632 35.2306 20.2582C36.4908 21.5034 38.4191 21.7724 38.8275 21.7724C39.3437 21.7724 41.3923 21.3157 42.3675 20.2488C43.3807 19.1445 43.7164 18.0432 43.6942 15.8939C43.6752 13.8791 43.3712 12.3586 41.8102 10.0873C40.5849 8.30402 39.0017 8.20077 38.837 8.19452L38.8339 8.19764Z" fill="#FAA755"/>
<path d="M73.7874 23.5212C73.7367 23.5212 73.686 23.5181 73.6354 23.5087C73.1193 23.4274 72.7646 22.9456 72.8501 22.4325L74.7594 10.7505C74.8417 10.2374 75.3294 9.8901 75.8486 9.97457C76.3648 10.0559 76.7194 10.5377 76.6339 11.0508L74.7246 22.7328C74.6486 23.1927 74.2465 23.5212 73.7874 23.5212Z" fill="#FFCE7B"/>
<path d="M85.4836 23.5026C84.958 23.5026 84.5337 23.0833 84.5337 22.564V5.56967C84.5337 5.05033 84.958 4.6311 85.4836 4.6311C86.0092 4.6311 86.4335 5.05033 86.4335 5.56967V22.5609C86.4335 23.0802 86.0092 23.4994 85.4836 23.4994V23.5026Z" fill="#FAA755"/>
<path d="M80.598 22.7673C80.5695 22.7673 80.541 22.7673 80.5157 22.7673C79.3885 22.7454 78.2518 22.1416 77.3937 21.1091C76.7288 20.3082 75.9277 18.8691 75.9087 16.579C75.8738 12.6746 77.7673 10.1748 80.8545 10.056C83.8498 9.9402 85.7402 13.2346 85.8193 13.3754L85.9396 13.5881L85.927 18.2778C85.4108 21.569 82.425 22.7704 80.6012 22.7704L80.598 22.7673ZM81.0001 11.93C80.9748 11.93 80.9495 11.93 80.9242 11.93C78.9167 12.0082 77.78 13.6976 77.8053 16.5602C77.8306 19.476 79.4613 20.8651 80.5505 20.8901C81.5163 20.9089 83.6504 20.2425 84.0335 18.0557V14.0887C83.549 13.3378 82.3553 11.93 81.0001 11.93Z" fill="#FAA755"/>
<path d="M83.0485 10.466C83.9229 10.466 84.6317 9.76561 84.6317 8.90168C84.6317 8.03775 83.9229 7.3374 83.0485 7.3374C82.1741 7.3374 81.4653 8.03775 81.4653 8.90168C81.4653 9.76561 82.1741 10.466 83.0485 10.466Z" fill="#FFCE7B"/>
<path d="M94.9697 12.6809L95.6948 14.8459L96.8569 12.6809H94.9697Z" fill="#FFCE7B"/>
<path d="M95.695 14.9804C95.695 14.9804 95.6886 14.9804 95.6823 14.9804C95.6285 14.9773 95.581 14.9397 95.5652 14.8897L94.8369 12.7247C94.8242 12.684 94.8306 12.6402 94.8559 12.6027C94.8812 12.5683 94.9224 12.5464 94.9667 12.5464H96.857C96.9045 12.5464 96.9488 12.5714 96.9742 12.6121C96.9995 12.6528 96.9995 12.7028 96.9773 12.7435L95.8153 14.9084C95.79 14.9522 95.7456 14.9804 95.695 14.9804ZM95.1567 12.8154L95.7235 14.508L96.6322 12.8154H95.1567Z" fill="#FFCE7B"/>
<path d="M95.9133 20.9528L95.185 19.5825L94.0229 20.9528H95.9133Z" fill="#FFCE7B"/>
<path d="M95.9134 21.0591H94.0231C93.9819 21.0591 93.9439 21.0341 93.9249 20.9965C93.9059 20.959 93.9123 20.9152 93.9408 20.8839L95.1028 19.5136C95.125 19.4854 95.1598 19.4729 95.1978 19.4761C95.2326 19.4792 95.2643 19.5011 95.2833 19.5324L96.0115 20.9027C96.0305 20.9371 96.0274 20.9746 96.0115 21.0059C95.9925 21.0372 95.9577 21.056 95.9197 21.056L95.9134 21.0591ZM94.2542 20.8432H95.7329L95.163 19.7701L94.2511 20.8432H94.2542Z" fill="#FFCE7B"/>
<path d="M92.7059 22.7644C91.775 22.7644 90.7745 22.586 89.8879 22.0417C88.4409 21.1531 87.6398 19.5326 87.5068 17.2299C87.3358 14.2797 88.0134 11.999 89.5238 10.4597C91.3792 8.56697 93.8268 8.47937 94.5329 8.49502C96.7905 8.55133 98.2534 11.026 98.4117 11.3076L97.6549 12.6998L90.1729 13.2723C90.0842 13.2786 89.9987 13.2723 89.9132 13.2567C89.4826 14.2891 89.3085 15.5812 89.4003 17.1236C89.4953 18.7817 89.9987 19.9017 90.8885 20.4492C92.5508 21.4723 95.22 20.4054 95.2453 20.3929C95.7298 20.1896 96.2871 20.4148 96.4897 20.8904C96.6955 21.369 96.4675 21.9196 95.9863 22.1199C95.8913 22.1605 94.4158 22.7644 92.7028 22.7644H92.7059ZM94.4031 10.369C93.9661 10.369 92.6141 10.4441 91.4362 11.2919L95.7171 10.9634C95.3467 10.6381 94.916 10.3784 94.4854 10.369C94.4633 10.369 94.4348 10.369 94.4031 10.369Z" fill="#FAA755"/>
<path d="M25.7065 11.2356C25.6812 11.2356 25.659 11.2294 25.6368 11.22L23.4774 10.15C23.4172 10.1218 23.3856 10.0593 23.3919 9.99357C23.3982 9.92788 23.4457 9.87469 23.5091 9.85905L25.6178 9.28965L23.4647 7.91309C23.3919 7.86616 23.3697 7.76917 23.4172 7.69721C23.4647 7.62526 23.5629 7.60336 23.6357 7.65029L26.0865 9.21769C26.1403 9.25211 26.1656 9.31155 26.1561 9.37412C26.1466 9.43669 26.1023 9.48362 26.0421 9.50239L23.9903 10.0561L25.7793 10.9415C25.8585 10.9791 25.8902 11.0729 25.849 11.1511C25.8205 11.2043 25.7667 11.2387 25.7065 11.2387V11.2356Z" fill="#999999"/>
<path d="M24.8102 23.5464C24.0693 23.5464 21.5742 23.1678 19.8707 21.4815C18.1672 19.7952 17.8411 17.0765 18.0026 15.6249C18.0153 15.5247 18.0248 15.409 18.0374 15.2838C18.1736 13.9292 18.4554 11.1135 20.1082 8.96416C21.4824 7.17775 23.0086 6.27673 24.7754 6.21729H24.8007C24.9147 6.2298 27.5048 6.22667 29.3634 8.92974C31.1746 11.5671 31.5545 13.5037 31.5735 15.7719C31.5957 17.9994 31.298 19.7201 29.756 21.4033C28.2615 23.0364 25.605 23.5432 24.8102 23.5432V23.5464ZM24.8197 8.09442C24.3701 8.11006 23.0909 8.1914 21.6217 10.103C20.295 11.8299 20.0576 14.1982 19.9309 15.4716C19.9182 15.6061 19.9056 15.7281 19.8929 15.8345C19.7694 16.9295 20.105 19.06 21.2164 20.155C22.4766 21.4002 24.4049 21.6692 24.8134 21.6692C25.3295 21.6692 27.3781 21.2125 28.3534 20.1456C29.3666 19.0381 29.7022 17.94 29.68 15.7907C29.661 13.7759 29.3571 12.2554 27.7961 9.98719C26.5707 8.20392 24.9875 8.10068 24.8229 8.09442H24.8197Z" fill="#FFCE7B"/>
<path d="M21.4666 2H2.9499C2.42429 2 2 2.41923 2 2.93857C2 3.45791 2.42429 3.87713 2.9499 3.87713H14.336V23.0614C14.336 23.5808 14.7603 24 15.2859 24C15.8116 24 16.2358 23.5808 16.2358 23.0614V3.87713H21.4666V2Z" fill="#FAA755"/>
<path d="M49.2734 8.60446V5.53848C49.2734 4.91903 48.7668 4.41846 48.1399 4.41846C47.513 4.41846 47.0063 4.91903 47.0063 5.53848V11.3263L49.2734 8.60446Z" fill="#FFCE7B"/>
<path d="M58.1801 21.6474L52.2116 12.6403L56.8724 7.11528C57.2365 6.68354 57.1795 6.03905 56.7394 5.67614C56.2993 5.31636 55.6502 5.37267 55.2829 5.80754L49.27 12.9375V12.9313L47.0029 15.6531V22.6141C47.0029 23.2336 47.5095 23.7342 48.1365 23.7342C48.7634 23.7342 49.27 23.2336 49.27 22.6141V16.1255L50.8247 14.2828L56.4481 22.7674C56.6476 23.0678 56.9769 23.2305 57.3157 23.2305C57.5088 23.2305 57.7083 23.1773 57.8825 23.0615C58.3606 22.7518 58.4936 22.1167 58.1801 21.6443V21.6474Z" fill="#FFCE7B"/>
</svg>
