<svg width="101" height="26" viewBox="0 0 101 26" fill="none" xmlns="http://www.w3.org/2000/svg">
<path d="M24.6963 23.7642C26.6873 23.7642 28.4162 22.6936 29.6138 21.1083C30.8111 19.5235 31.5224 17.3791 31.5224 15.0523C31.5224 12.7256 30.8111 10.5812 29.6138 8.99643C28.4162 7.41109 26.6873 6.34045 24.6963 6.34045C22.7053 6.34045 20.9764 7.41109 19.7788 8.99643C18.5815 10.5812 17.8702 12.7256 17.8702 15.0523C17.8702 17.3791 18.5815 19.5235 19.7788 21.1083C20.9764 22.6936 22.7053 23.7642 24.6963 23.7642Z" fill="white" stroke="white" stroke-width="2" stroke-linejoin="round"/>
<path d="M38.5902 24.0489C40.5812 24.0489 42.3101 22.9783 43.5077 21.3929C44.705 19.8081 45.4162 17.6637 45.4162 15.337C45.4162 13.0103 44.705 10.8659 43.5077 9.2811C42.3101 7.69576 40.5812 6.62512 38.5902 6.62512C36.5992 6.62512 34.8703 7.69576 33.6726 9.2811C32.4754 10.8659 31.7641 13.0103 31.7641 15.337C31.7641 17.6637 32.4754 19.8081 33.6726 21.3929C34.8703 22.9783 36.5992 24.0489 38.5902 24.0489Z" fill="white" stroke="white" stroke-width="2" stroke-linejoin="round"/>
<path d="M7.45475 10.9427C7.75889 10.7799 8.2752 10.7285 8.91915 10.8103C9.53327 10.8882 10.0927 11.0649 10.3432 11.1669C10.8507 11.3733 11.4298 11.133 11.642 10.628L12.3703 8.89473C12.4735 8.64895 12.4744 8.37212 12.3727 8.12571C12.2709 7.8793 12.075 7.68371 11.8284 7.58239C11.6291 7.50051 10.7463 7.15522 9.60469 6.98628C8.48036 6.8199 6.96755 6.80394 5.61057 7.52816L5.6099 7.52851C4.65599 8.03854 3.4958 9.09398 3.09829 11.1365C3.00986 11.5335 2.89783 12.4555 3.37462 13.5487C3.86554 14.6744 4.92092 15.8448 6.94225 16.793L6.94255 16.7931C8.24156 17.4019 8.73603 17.8619 8.93603 18.153C9.10349 18.3968 9.12342 18.5907 9.13749 19.0319V19.1183C9.13158 19.1362 9.11869 19.1711 9.09252 19.2241C9.03325 19.3442 8.93356 19.4984 8.79431 19.6544C8.50934 19.9735 8.13908 20.2139 7.73928 20.2733L7.73876 20.2734C7.32503 20.3351 6.75345 20.2579 6.15544 20.0939C5.57505 19.9348 5.07807 19.7246 4.86297 19.6171C4.37305 19.3723 3.77732 19.5671 3.52672 20.0541L2.66548 21.7279C2.54174 21.9683 2.52068 22.2487 2.6071 22.505C2.69352 22.7612 2.88005 22.9715 3.12415 23.088C3.12398 23.0879 3.12469 23.0882 3.13342 23.0925L3.1606 23.1055C3.18296 23.1163 3.21257 23.1303 3.24886 23.1472C3.32139 23.1809 3.41983 23.2255 3.5405 23.2771C3.78131 23.3802 4.11261 23.5125 4.50499 23.6433C5.25595 23.8936 6.28016 24.1555 7.34305 24.1702C7.37184 24.1728 7.40093 24.174 7.43027 24.174C7.72806 24.174 8.01927 24.1514 8.30326 24.1108L8.30326 24.1108L8.30938 24.1099C9.69496 23.903 10.876 23.1568 11.6985 22.2472C12.5005 21.3602 13.0613 20.2025 13.0278 19.075V18.9661C13.0278 18.9574 13.0277 18.9487 13.0274 18.94C13.0065 18.1375 12.9009 17.1347 12.2315 16.1012C11.5721 15.083 10.4415 14.149 8.60235 13.2867C7.55009 12.7922 7.15307 12.3508 7.00799 12.1222C6.94705 12.0262 6.92381 11.9575 6.91521 11.9212L6.91528 11.9209C6.9174 11.9113 6.91938 11.9017 6.92122 11.8921C7.03933 11.2728 7.25471 11.0511 7.45475 10.9427ZM6.91046 11.8915C6.91058 11.8915 6.91084 11.8937 6.91089 11.8981C6.91036 11.8938 6.91034 11.8916 6.91046 11.8915Z" fill="#FAA755" stroke="white" stroke-width="2" stroke-linejoin="round"/>
<path d="M22.7205 16.0711C23.9539 16.0711 24.9744 15.08 24.9744 13.8322C24.9744 12.5844 23.9539 11.5933 22.7205 11.5933C21.4871 11.5933 20.4666 12.5844 20.4666 13.8322C20.4666 15.08 21.4871 16.0711 22.7205 16.0711Z" fill="#40D2FF" stroke="white" stroke-width="2" stroke-linejoin="round"/>
<path d="M27.4637 16.0711C28.6971 16.0711 29.7175 15.08 29.7175 13.8322C29.7175 12.5844 28.6971 11.5933 27.4637 11.5933C26.2303 11.5933 25.2098 12.5844 25.2098 13.8322C25.2098 15.08 26.2303 16.0711 27.4637 16.0711Z" fill="#40D2FF" stroke="white" stroke-width="2" stroke-linejoin="round"/>
<path d="M36.4592 15.4423C37.6927 15.4423 38.7131 14.4512 38.7131 13.2034C38.7131 11.9556 37.6927 10.9645 36.4592 10.9645C35.2258 10.9645 34.2054 11.9556 34.2054 13.2034C34.2054 14.4512 35.2258 15.4423 36.4592 15.4423Z" fill="#40D2FF" stroke="white" stroke-width="2" stroke-linejoin="round"/>
<path d="M41.1137 16.3339C42.3472 16.3339 43.3676 15.3428 43.3676 14.095C43.3676 12.8472 42.3472 11.8561 41.1137 11.8561C39.8803 11.8561 38.8599 12.8472 38.8599 14.095C38.8599 15.3428 39.8803 16.3339 41.1137 16.3339Z" fill="#40D2FF" stroke="white" stroke-width="2" stroke-linejoin="round"/>
<path d="M60.0906 24.5838C60.085 24.5839 60.0794 24.5839 60.0738 24.5839L60.0906 24.5838ZM60.0906 24.5838C60.8846 24.5743 61.6374 24.0765 61.9127 23.2697C61.913 23.269 61.9132 23.2683 61.9134 23.2677L65.5726 12.637L69.1734 23.2635L69.1743 23.2659C69.523 24.2867 70.6295 24.8133 71.6348 24.4843L71.6348 24.4843L71.6402 24.4825C72.6505 24.1455 73.2197 23.052 72.869 22.0231C72.8688 22.0227 72.8687 22.0222 72.8685 22.0217L67.4359 5.9841C67.2984 5.57812 66.9174 5.30493 66.4888 5.30493H64.6903C64.2634 5.30493 63.8836 5.57589 63.7447 5.97952L58.2258 22.0165L58.2251 22.0186C57.8763 23.0394 58.4308 24.1412 59.4482 24.4818C59.6511 24.5504 59.8558 24.5816 60.0513 24.5838C60.0567 24.5839 60.0621 24.5839 60.0674 24.5839L60.0906 24.5838Z" fill="#FAA755" stroke="white" stroke-width="2" stroke-linejoin="round"/>
<path d="M38.8483 9.19778C38.6861 9.20398 38.4122 9.22347 38.0403 9.39709C37.6456 9.58131 37.0799 9.96849 36.429 10.8154L38.8483 9.19778ZM38.8483 9.19778C39.0846 9.22302 40.1271 9.40348 40.9862 10.6536L40.9862 10.6537C41.724 11.7272 42.136 12.5812 42.3724 13.3729C42.6087 14.1644 42.6853 14.945 42.6944 15.9033L42.6944 15.9042C42.705 16.9352 42.6274 17.6311 42.4626 18.1718C42.305 18.6892 42.0527 19.1129 41.6308 19.5728L41.6295 19.5741C41.3057 19.9284 40.7321 20.2411 40.0915 20.4681C39.7855 20.5766 39.4928 20.6554 39.2534 20.7063C39.134 20.7317 39.0325 20.7491 38.9534 20.7598C38.914 20.7652 38.8826 20.7685 38.8593 20.7705C38.8382 20.7722 38.8281 20.7724 38.8273 20.7724C38.8254 20.7724 38.8152 20.7722 38.7954 20.771C38.7741 20.7697 38.7458 20.7674 38.7108 20.7638C38.6405 20.7565 38.5493 20.7443 38.4412 20.7256C38.2246 20.6881 37.9519 20.6262 37.6557 20.5306C37.0526 20.336 36.4141 20.0217 35.9335 19.5469L35.9325 19.5459C35.5571 19.176 35.2585 18.5649 35.0743 17.8489C34.8924 17.1415 34.8551 16.4601 34.9006 16.0525C34.9143 15.937 34.9276 15.8085 34.9405 15.6712C35.0712 14.358 35.3025 12.282 36.4289 10.8156L38.8483 9.19778ZM38.8245 24.6465C38.8574 24.6465 38.89 24.6449 38.9221 24.6417C39.4732 24.6246 40.3951 24.4674 41.3638 24.1302C42.3975 23.7703 43.606 23.164 44.5077 22.1789C46.2953 20.2276 46.6077 18.206 46.5877 15.8635C46.5673 13.4222 46.1398 11.2856 44.202 8.46375L44.2017 8.46325C42.0656 5.35665 39.0562 5.31738 38.815 5.31738H38.7897C38.7784 5.31738 38.7672 5.31757 38.756 5.31795C36.6106 5.39013 34.8309 6.50321 33.3299 8.45453L33.3298 8.45466C31.5036 10.8294 31.1977 13.8788 31.0617 15.2339C31.0601 15.2506 31.0584 15.2671 31.0568 15.2832C31.0509 15.3413 31.0464 15.3885 31.0426 15.4294C31.0362 15.4968 31.0314 15.5469 31.0248 15.5994L31.023 15.6144C30.9287 16.4617 30.9789 17.6257 31.2828 18.8132C31.5868 20.0015 32.1637 21.2848 33.1815 22.2923C34.1764 23.2772 35.3787 23.8596 36.4035 24.1964C37.4214 24.531 38.3359 24.6465 38.8245 24.6465Z" fill="#FAA755" stroke="white" stroke-width="2" stroke-linejoin="round"/>
<path d="M73.7721 10.5905C73.7721 10.591 73.772 10.5916 73.7719 10.5921L71.8635 22.2682C71.8634 22.2688 71.8633 22.2694 71.8632 22.27C71.6861 23.3391 72.422 24.3229 73.4667 24.4946C73.5895 24.5163 73.6997 24.5213 73.7872 24.5213C74.7208 24.5213 75.5529 23.8532 75.711 22.896L75.7113 22.8942L77.6201 11.2153C77.6202 11.2147 77.6203 11.2141 77.6204 11.2135C77.7981 10.1408 77.0567 9.15413 76.0066 8.98727C74.9546 8.81747 73.9446 9.52129 73.7721 10.5905Z" fill="#FFCE7B" stroke="white" stroke-width="2" stroke-linejoin="round"/>
<path d="M85.4836 24.5026C85.522 24.5026 85.5599 24.5004 85.5971 24.4962C86.6121 24.438 87.4335 23.6051 87.4335 22.5609V5.56967C87.4335 4.48676 86.5502 3.6311 85.4836 3.6311C84.4171 3.6311 83.5337 4.48676 83.5337 5.56967V22.564C83.5337 23.6469 84.4171 24.5026 85.4836 24.5026Z" fill="#FAA755" stroke="white" stroke-width="2" stroke-linejoin="round"/>
<path d="M80.5156 23.7673L80.4962 23.7672C79.0228 23.7385 77.6293 22.9573 76.6246 21.7484L76.6242 21.748C75.8262 20.7867 74.9299 19.1292 74.9087 16.588L80.5156 23.7673ZM80.5156 23.7673H80.5158H80.5159H80.5161H80.5162H80.5164H80.5165H80.5167H80.5168H80.517H80.5171H80.5173H80.5174H80.5176H80.5177H80.5179H80.518H80.5182H80.5183H80.5185H80.5186H80.5188H80.5189H80.5191H80.5192H80.5194H80.5195H80.5197H80.5198H80.52H80.5201H80.5203H80.5204H80.5206H80.5207H80.5209H80.521H80.5212H80.5213H80.5215H80.5216H80.5218H80.5219H80.5221C80.5483 23.7694 80.5747 23.7705 80.6011 23.7705C82.7183 23.7705 86.2952 22.3841 86.9148 18.4328C86.9227 18.3824 86.9268 18.3315 86.9269 18.2806L86.9396 13.5909C86.94 13.4174 86.8954 13.2468 86.81 13.0959M80.5156 23.7673L86.81 13.0959M86.81 13.0959L86.6909 12.8853C86.6907 12.8849 86.6905 12.8846 86.6903 12.8842M86.81 13.0959L86.6903 12.8842M76.4138 11.2939C77.4569 9.91788 78.9852 9.1273 80.8158 9.05677L76.4138 11.2939ZM76.4138 11.2939C75.3892 12.6457 74.89 14.4829 74.9087 16.5874L76.4138 11.2939ZM86.6903 12.8842C86.6251 12.7684 86.0776 11.8191 85.1247 10.8999C84.1786 9.98699 82.705 8.98381 80.816 9.05676L86.6903 12.8842ZM78.8052 16.5516L78.8052 16.5514C78.7936 15.2349 79.0533 14.3218 79.4319 13.7595C79.7786 13.2446 80.2623 12.9612 80.9451 12.93H80.9452H80.9453H80.9455H80.9456H80.9458H80.9459H80.9461H80.9462H80.9464H80.9465H80.9467H80.9468H80.947H80.9471H80.9473H80.9474H80.9475H80.9477H80.9478H80.948H80.9481H80.9483H80.9484H80.9486H80.9487H80.9489H80.949H80.9492H80.9493H80.9495H80.9496H80.9498H80.9499H80.9501H80.9502H80.9504H80.9505H80.9507H80.9508H80.951H80.9511H80.9513H80.9514H80.9516H80.9517H80.9519H80.952H80.9521H80.9523H80.9524H80.9526H80.9527H80.9529H80.953H80.9532H80.9533H80.9535H80.9536H80.9538H80.9539H80.9541H80.9542H80.9544H80.9545H80.9547H80.9548H80.955H80.9551H80.9553H80.9554H80.9556H80.9557H80.9559H80.956H80.9562H80.9563H80.9565H80.9566H80.9568H80.9569H80.957H80.9572H80.9573H80.9575H80.9576H80.9578H80.9579H80.9581H80.9582H80.9584H80.9585H80.9587H80.9588H80.959H80.9591H80.9593H80.9594H80.9596H80.9597H80.9599H80.96H80.9602H80.9603H80.9605H80.9606H80.9608H80.9609H80.9611H80.9612H80.9614H80.9615H80.9616H80.9618H80.9619H80.9621H80.9622H80.9624H80.9625H80.9627H80.9628H80.963H80.9631H80.9633H80.9634H80.9636H80.9637H80.9639H80.964H80.9642H80.9643H80.9645H80.9646H80.9648H80.9649H80.9651H80.9652H80.9654H80.9655H80.9657H80.9658H80.966H80.9661H80.9663H80.9664H80.9665H80.9667H80.9668H80.967H80.9671H80.9673H80.9674H80.9676H80.9677H80.9679H80.968H80.9682H80.9683H80.9685H80.9686H80.9688H80.9689H80.9691H80.9692H80.9694H80.9695H80.9697H80.9698H80.97H80.9701H80.9703H80.9704H80.9706H80.9707H80.9709H80.971H80.9711H80.9713H80.9714H80.9716H80.9717H80.9719H80.972H80.9722H80.9723H80.9725H80.9726H80.9728H80.9729H80.9731H80.9732H80.9734H80.9735H80.9737H80.9738H80.974H80.9741H80.9743H80.9744H80.9746H80.9747H80.9749H80.975H80.9752H80.9753H80.9755H80.9756H80.9757H80.9759H80.976H80.9762H80.9763H80.9765H80.9766H80.9768H80.9769H80.9771H80.9772H80.9774H80.9775H80.9777H80.9778H80.978H80.9781H80.9783H80.9784H80.9786H80.9787H80.9789H80.979H80.9792H80.9793H80.9795H80.9796H80.9798H80.9799H80.9801H80.9802H80.9804H80.9805H80.9806H80.9808H80.9809H80.9811H80.9812H80.9814H80.9815H80.9817H80.9818H80.982H80.9821H80.9823H80.9824H80.9826H80.9827H80.9829H80.983H80.9832H80.9833H80.9835H80.9836H80.9838H80.9839H80.9841H80.9842H80.9844H80.9845H80.9847H80.9848H80.985H80.9851H80.9852H80.9854H80.9855H80.9857H80.9858H80.986H80.9861H80.9863H80.9864H80.9866H80.9867H80.9869H80.987H80.9872H80.9873H80.9875H80.9876H80.9878H80.9879H80.9881H80.9882H80.9884H80.9885H80.9887H80.9888H80.989H80.9891H80.9893H80.9894H80.9896H80.9897H80.9899H80.99H80.9901H80.9903H80.9904H80.9906H80.9907H80.9909H80.991H80.9912H80.9913H80.9915H80.9916H80.9918H80.9919H80.9921H80.9922H80.9924H80.9925H80.9927H80.9928H80.993H80.9931H80.9933H80.9934H80.9936H80.9937H80.9939H80.994H80.9942H80.9943H80.9945H80.9946H80.9947H80.9949H80.995H80.9952H80.9953H80.9955H80.9956H80.9958H80.9959H80.9961H80.9962H80.9964H80.9965H80.9967H80.9968H80.997H80.9971H80.9973H80.9974H80.9976H80.9977H80.9979H80.998H80.9982H80.9983H80.9985H80.9986H80.9988H80.9989H80.9991H80.9992H80.9993H80.9995H80.9996H80.9998H80.9999H81.0001C81.3367 12.93 81.7495 13.1133 82.1984 13.4921C82.5351 13.7761 82.8253 14.1148 83.0334 14.3993V17.9618C82.8848 18.6812 82.4708 19.1465 81.9815 19.4514C81.4457 19.7853 80.8629 19.8955 80.5721 19.8904C80.2368 19.8809 78.828 19.1705 78.8052 16.5516Z" fill="#FAA755" stroke="white" stroke-width="2" stroke-linejoin="round"/>
<path d="M83.0487 11.4658C84.464 11.4658 85.6319 10.3291 85.6319 8.90156C85.6319 7.47406 84.464 6.33728 83.0487 6.33728C81.6334 6.33728 80.4655 7.47406 80.4655 8.90156C80.4655 10.3291 81.6334 11.4658 83.0487 11.4658Z" fill="#FFCE7B" stroke="white" stroke-width="2" stroke-linejoin="round"/>
<path d="M94.97 11.6809C94.6483 11.6809 94.3462 11.8357 94.1583 12.0968C93.9704 12.3579 93.9196 12.6935 94.0217 12.9985L94.7468 15.1635C94.8735 15.5417 95.2129 15.8085 95.6104 15.8423C96.0079 15.876 96.3875 15.6703 96.5762 15.3188L97.7382 13.1538C97.9045 12.8439 97.8958 12.4694 97.7153 12.1676C97.5347 11.8657 97.2088 11.6809 96.8571 11.6809H94.97Z" fill="#FFCE7B" stroke="white" stroke-width="2" stroke-linejoin="round"/>
<path d="M95.6244 15.9787C95.6437 15.9798 95.663 15.9804 95.6824 15.9804H95.6824H95.6825H95.6825H95.6825H95.6826H95.6826H95.6826H95.6827H95.6827H95.6828H95.6828H95.6828H95.6829H95.6829H95.6829H95.683H95.683H95.683H95.6831H95.6831H95.6832H95.6832H95.6832H95.6833H95.6833H95.6833H95.6834H95.6834H95.6835H95.6835H95.6835H95.6836H95.6836H95.6836H95.6837H95.6837H95.6838H95.6838H95.6838H95.6839H95.6839H95.6839H95.684H95.684H95.684H95.6841H95.6841H95.6842H95.6842H95.6842H95.6843H95.6843H95.6843H95.6844H95.6844H95.6845H95.6845H95.6845H95.6846H95.6846H95.6846H95.6847H95.6847H95.6847H95.6848H95.6848H95.6849H95.6849H95.6849H95.685H95.685H95.685H95.6851H95.6851H95.6851H95.6852H95.6852H95.6853H95.6853H95.6853H95.6854H95.6854H95.6854H95.6855H95.6855H95.6855H95.6856H95.6856H95.6857H95.6857H95.6857H95.6858H95.6858H95.6858H95.6859H95.6859H95.6859H95.686H95.686H95.686H95.6861H95.6861H95.6862H95.6862H95.6862H95.6863H95.6863H95.6863H95.6864H95.6864H95.6864H95.6865H95.6865H95.6865H95.6866H95.6866H95.6866H95.6867H95.6867H95.6868H95.6868H95.6868H95.6869H95.6869H95.6869H95.687H95.687H95.687H95.6871H95.6871H95.6871H95.6872H95.6872H95.6872H95.6873H95.6873H95.6873H95.6874H95.6874H95.6874H95.6875H95.6875H95.6876H95.6876H95.6876H95.6877H95.6877H95.6877H95.6878H95.6878H95.6878H95.6879H95.6879H95.6879H95.688H95.688H95.688H95.6881H95.6881H95.6881H95.6882H95.6882H95.6882H95.6883H95.6883H95.6883H95.6884H95.6884H95.6884H95.6885H95.6885H95.6885H95.6886H95.6886H95.6886H95.6887H95.6887H95.6887H95.6888H95.6888H95.6888H95.6889H95.6889H95.6889H95.6889H95.689H95.689H95.689H95.6891H95.6891H95.6891H95.6892H95.6892H95.6892H95.6893H95.6893H95.6893H95.6894H95.6894H95.6894H95.6895H95.6895H95.6895H95.6896H95.6896H95.6896H95.6896H95.6897H95.6897H95.6897H95.6898H95.6898H95.6898H95.6899H95.6899H95.6899H95.69H95.69H95.69H95.69H95.6901H95.6901H95.6901H95.6902H95.6902H95.6902H95.6903H95.6903H95.6903H95.6903H95.6904H95.6904H95.6904H95.6905H95.6905H95.6905H95.6905H95.6906H95.6906H95.6906H95.6907H95.6907H95.6907H95.6908H95.6908H95.6908H95.6908H95.6909H95.6909H95.6909H95.691H95.691H95.691H95.691H95.6911H95.6911H95.6911H95.6911H95.6912H95.6912H95.6912H95.6913H95.6913H95.6913H95.6913H95.6914H95.6914H95.6914H95.6914H95.6915H95.6915H95.6915H95.6916H95.6916H95.6916H95.6916H95.6917H95.6917H95.6917H95.6917H95.6918H95.6918H95.6918H95.6918H95.6919H95.6919H95.6919H95.6919H95.692H95.692H95.692H95.692H95.6921H95.6921H95.6921H95.6921H95.6922H95.6922H95.6922H95.6922H95.6923H95.6923H95.6923H95.6923H95.6924H95.6924H95.6924H95.6924H95.6925H95.6925H95.6925H95.6925H95.6926H95.6926H95.6926H95.6926H95.6926H95.6927H95.6927H95.6927H95.6927H95.6928H95.6928H95.6928H95.6928H95.6928H95.6929H95.6929H95.6929H95.6929H95.693H95.693H95.693H95.693H95.693H95.6931H95.6931H95.6931H95.6931H95.6931H95.6932H95.6932H95.6932H95.6932H95.6932H95.6933H95.6933H95.6933H95.6933H95.6933H95.6934H95.6934H95.6934H95.6934H95.6934H95.6935H95.6935H95.6935H95.6935H95.6935H95.6936H95.6936H95.6936H95.6936H95.6936H95.6937H95.6937H95.6937H95.6937H95.6937H95.6937H95.6938H95.6938H95.6938H95.6938H95.6938H95.6938H95.6939H95.6939H95.6939H95.6939H95.6939H95.6939H95.694H95.694H95.694H95.694H95.694H95.694H95.6941H95.6941H95.6941H95.6941H95.6941H95.6941H95.6941H95.6942H95.6942H95.6942H95.6942H95.6942H95.6942H95.6942H95.6943H95.6943H95.6943H95.6943H95.6943H95.6943H95.6943H95.6944H95.6944H95.6944H95.6944H95.6944H95.6944H95.6944H95.6944H95.6945H95.6945H95.6945H95.6945H95.6945H95.6945H95.6945H95.6945H95.6946H95.6946H95.6946H95.6946H95.6946H95.6946H95.6946H95.6946H95.6946H95.6947H95.6947H95.6947H95.6947H95.6947H95.6947H95.6947H95.6947H95.6947H95.6947H95.6947H95.6948H95.6948H95.6948H95.6948H95.6948H95.6948H95.6948H95.6948H95.6948H95.6948H95.6948H95.6948H95.6949H95.6949H95.6949H95.6949H95.6949H95.6949H95.6949H95.6949H95.6949H95.6949H95.6949H95.6949H95.6949H95.6949H95.6949H95.6949H95.695H95.695H95.695H95.695H95.695H95.695H95.695H95.695H95.695H95.695H95.695H95.695H95.695H95.695H95.695H95.695H95.695H95.695H95.695H95.695H95.695H95.695H95.695H95.695H95.695H95.695H95.695H95.695H95.695H95.695C96.1375 15.9804 96.4951 15.7306 96.681 15.4091C96.6863 15.3999 96.6915 15.3907 96.6965 15.3814L97.8578 13.2178C98.0415 12.8772 98.0474 12.4436 97.8231 12.0834L97.8231 12.0834C97.6192 11.7561 97.2575 11.5464 96.8571 11.5464H94.9668C94.5939 11.5464 94.258 11.7282 94.0506 12.0099C94.0425 12.0209 94.0347 12.0321 94.027 12.0434C93.8367 12.3255 93.7768 12.6835 93.8822 13.022L93.8892 13.0435L94.616 15.2042C94.7603 15.642 95.1601 15.9517 95.6244 15.9787Z" fill="#FFCE7B" stroke="white" stroke-width="2" stroke-linejoin="round"/>
<path d="M95.9135 21.9528C96.2645 21.9528 96.5898 21.7688 96.7707 21.4679C96.9515 21.1671 96.9613 20.7935 96.7966 20.4835L96.0683 19.1132C95.9127 18.8204 95.6221 18.6238 95.2925 18.5883C94.9628 18.5527 94.637 18.6829 94.4226 18.9358L93.2605 20.3061C93.0086 20.6032 92.9521 21.0196 93.1158 21.3731C93.2795 21.7266 93.6337 21.9528 94.0232 21.9528H95.9135Z" fill="#FFCE7B" stroke="white" stroke-width="2" stroke-linejoin="round"/>
<path d="M95.9135 22.0592C95.9814 22.0592 96.0489 22.0522 96.115 22.0387C96.4117 21.9856 96.6924 21.8116 96.8664 21.525C96.8798 21.503 96.8923 21.4805 96.904 21.4575C97.0393 21.19 97.0934 20.8019 96.8927 20.4296L96.1665 19.0631C96.1575 19.0463 96.1481 19.0297 96.1382 19.0134C95.9794 18.7519 95.6838 18.5157 95.2874 18.4801L95.2874 18.4801L95.28 18.4795C94.9811 18.4549 94.6015 18.5503 94.334 18.8743L93.1836 20.2308C92.8967 20.5618 92.8266 21.0406 93.0328 21.4481C93.2073 21.7929 93.5734 22.0592 94.0232 22.0592H95.9135Z" fill="#FFCE7B" stroke="white" stroke-width="2" stroke-linejoin="round"/>
<path d="M92.7078 23.7642C94.5969 23.7631 96.2017 23.1146 96.3747 23.0413C97.3587 22.6292 97.8366 21.4932 97.4091 20.4967C96.9875 19.5095 95.843 19.0574 94.8584 19.4707C94.8395 19.4787 94.8209 19.4872 94.8025 19.4962C94.8349 19.4802 94.8324 19.4811 94.7951 19.4946C94.7486 19.5113 94.6484 19.5475 94.4946 19.5947C94.2469 19.6706 93.9053 19.7607 93.523 19.8218C92.7099 19.9518 91.9297 19.9156 91.4127 19.5975L91.4126 19.5974C90.9341 19.303 90.4862 18.5929 90.3987 17.0663L90.3986 17.064C90.3315 15.937 90.4198 15.0012 90.6309 14.2401L97.7313 13.6968C98.0696 13.6709 98.3716 13.4753 98.5336 13.1772L99.2904 11.785C99.4547 11.4828 99.452 11.1172 99.2834 10.8174C99.1814 10.636 98.7232 9.85836 97.9631 9.106C97.2142 8.36468 96.0538 7.53252 94.5579 7.49521V7.4952L94.5552 7.49514C93.7672 7.47768 90.9624 7.56395 88.8101 9.75925L92.7078 23.7642ZM89.3647 22.8937C90.4551 23.5632 91.6531 23.7638 92.7029 23.7642L86.5086 17.2877C86.6531 19.7885 87.5449 21.7763 89.3647 22.8937L89.3647 22.8937ZM88.8098 9.75959C87.0367 11.5668 86.3277 14.1653 86.5086 17.2875L88.8098 9.75959Z" fill="#FAA755" stroke="white" stroke-width="2" stroke-linejoin="round"/>
<path d="M26.7338 11.6167C26.9595 11.1878 26.8885 10.6865 26.5987 10.3399C26.8717 10.1744 27.0887 9.89253 27.1446 9.52409C27.2108 9.08845 27.0266 8.63188 26.6251 8.37513C26.6251 8.3751 26.625 8.37508 26.625 8.37505L24.1752 6.80826C23.6317 6.45959 22.9246 6.62786 22.5825 7.14622C22.2164 7.70095 22.4008 8.41713 22.9229 8.75355L22.9229 8.75356L22.9259 8.75549L23.1759 8.91533C22.7583 9.05673 22.4413 9.43108 22.3964 9.89751C22.3542 10.3349 22.5662 10.8199 23.0391 11.0488L25.1927 12.1159C25.2105 12.1247 25.2285 12.133 25.2468 12.1407C25.3062 12.1659 25.3867 12.1948 25.4848 12.214C25.5561 12.2301 25.6302 12.2386 25.7064 12.2386C26.1606 12.2386 26.5401 11.9783 26.7303 11.6233L26.7303 11.6233L26.7338 11.6167ZM23.0939 8.49076L23.0948 8.49134L23.0939 8.49076Z" fill="#999999" stroke="white" stroke-width="2" stroke-linejoin="round"/>
<path d="M24.8103 24.5464C24.8432 24.5464 24.8758 24.5448 24.908 24.5416C25.459 24.5245 26.3809 24.3673 27.3496 24.0301C28.3833 23.6702 29.5918 23.0639 30.4935 22.0788C32.2804 20.1282 32.5968 18.1073 32.5736 15.7626C32.553 13.3216 32.1255 11.1852 30.1878 8.36365L30.1875 8.36316C29.1267 6.82035 27.8382 6.02943 26.7821 5.62939C25.7381 5.23395 24.8992 5.22208 24.9099 5.22326C24.8737 5.21928 24.8373 5.21729 24.8008 5.21729H24.7755C24.7643 5.21729 24.753 5.21747 24.7418 5.21785C22.5965 5.29003 20.8167 6.40311 19.3157 8.35444L19.3156 8.35456C17.4894 10.7293 17.1835 13.7788 17.0475 15.1338C17.0459 15.1505 17.0442 15.167 17.0426 15.1831C17.0367 15.2412 17.0322 15.2884 17.0284 15.3293C17.022 15.3967 17.0172 15.4468 17.0106 15.4993L17.0088 15.5143C16.9146 16.3616 16.9647 17.5256 17.2686 18.7131C17.5727 19.9014 18.1495 21.1847 19.1673 22.1922C20.1623 23.1771 21.3645 23.7595 22.3893 24.0963C23.4073 24.4309 24.3217 24.5464 24.8103 24.5464ZM21.9194 19.4437L21.9183 19.4427C21.5429 19.0727 21.2443 18.4617 21.0601 17.7456C20.8782 17.0383 20.8409 16.3569 20.8864 15.9493C20.9001 15.8338 20.9134 15.7053 20.9263 15.568C21.057 14.2548 21.2882 12.1787 22.4147 10.7123C23.0657 9.86532 23.6314 9.47809 24.0261 9.29386C24.3812 9.12809 24.6469 9.10283 24.8115 9.09549C24.9938 9.11113 26.0815 9.25757 26.972 10.5535L26.9724 10.5541C27.71 11.626 28.1219 12.479 28.3582 13.2702C28.5945 14.0612 28.6711 14.8418 28.6802 15.8001L28.6802 15.801C28.6908 16.8319 28.6132 17.527 28.4485 18.0672C28.2909 18.5843 28.0385 19.0084 27.6156 19.4706L27.6153 19.4709C27.2915 19.8252 26.7179 20.1379 26.0773 20.3649C25.7713 20.4733 25.4786 20.5522 25.2393 20.603C25.1198 20.6284 25.0183 20.6459 24.9392 20.6566C24.8998 20.662 24.8684 20.6653 24.8451 20.6672C24.824 20.669 24.8139 20.6692 24.8131 20.6692C24.8113 20.6692 24.801 20.669 24.7812 20.6678C24.7599 20.6665 24.7317 20.6642 24.6966 20.6606C24.6263 20.6533 24.5351 20.6411 24.427 20.6224C24.2104 20.5849 23.9377 20.523 23.6415 20.4274C23.0384 20.2327 22.4 19.9185 21.9194 19.4437Z" fill="#FFCE7B" stroke="white" stroke-width="2" stroke-linejoin="round"/>
<path d="M22.4666 2C22.4666 1.44772 22.0189 1 21.4666 1H2.9499C1.88336 1 1 1.85566 1 2.93857C1 4.02147 1.88336 4.87713 2.9499 4.87713H13.336V23.0614C13.336 24.1443 14.2194 25 15.2859 25C16.3525 25 17.2358 24.1443 17.2358 23.0614V4.87713H21.4666C22.0189 4.87713 22.4666 4.42942 22.4666 3.87713V2Z" fill="#FAA755" stroke="white" stroke-width="2" stroke-linejoin="round"/>
<path d="M50.0419 9.2444C50.1916 9.06472 50.2735 8.83826 50.2735 8.6044V5.53842C50.2735 4.3554 49.3079 3.4184 48.14 3.4184C46.9721 3.4184 46.0065 4.3554 46.0065 5.53842V11.3262C46.0065 11.7473 46.2702 12.1233 46.6661 12.2666C47.0621 12.4099 47.5053 12.2898 47.7748 11.9662L50.0419 9.2444Z" fill="#FFCE7B" stroke="white" stroke-width="2" stroke-linejoin="round"/>
<path d="M48.5669 12.2203C48.5442 12.2427 48.5225 12.2664 48.5019 12.2912L46.2348 15.013C46.0851 15.1927 46.0031 15.4192 46.0031 15.653V22.6141C46.0031 23.7971 46.9688 24.7341 48.1367 24.7341C49.3046 24.7341 50.2702 23.7971 50.2702 22.6141V16.4909L50.7286 15.9476L55.6148 23.3198L55.6153 23.3206C56.0089 23.9132 56.6582 24.2304 57.3159 24.2304C57.6884 24.2304 58.0817 24.1285 58.4313 23.8975C59.3698 23.2858 59.6355 22.0286 59.0135 21.0913C59.0027 21.075 58.9915 21.0591 58.9799 21.0436L53.4592 12.7124L57.637 7.76001L57.637 7.75993C58.3608 6.90179 58.2445 5.62082 57.3758 4.90455L57.3758 4.90454L57.3725 4.90185C56.5142 4.20023 55.2426 4.30571 54.5191 5.16223L54.5187 5.1628L48.5669 12.2203Z" fill="#FFCE7B" stroke="white" stroke-width="2" stroke-linejoin="round"/>
<path d="M24.6963 22.7642C27.9139 22.7642 30.5224 19.3115 30.5224 15.0523C30.5224 10.7932 27.9139 7.34045 24.6963 7.34045C21.4787 7.34045 18.8702 10.7932 18.8702 15.0523C18.8702 19.3115 21.4787 22.7642 24.6963 22.7642Z" fill="white"/>
<path d="M38.5902 23.0489C41.8078 23.0489 44.4162 19.5962 44.4162 15.337C44.4162 11.0779 41.8078 7.62512 38.5902 7.62512C35.3725 7.62512 32.7641 11.0779 32.7641 15.337C32.7641 19.5962 35.3725 23.0489 38.5902 23.0489Z" fill="white"/>
<path d="M7.4366 23.1709C5.5463 23.1709 3.6465 22.2292 3.55467 22.1854L4.41592 20.5116C4.96053 20.7838 6.64818 21.4471 7.88622 21.2625C9.27624 21.056 10.1565 19.6607 10.1375 19.1507V19.0162C10.109 18.1026 10.0837 17.1609 7.36694 15.8876C3.66549 14.1513 3.96313 11.8361 4.07712 11.3418C4.40642 9.62738 5.34999 8.80144 6.08141 8.41038C8.25035 7.25281 11.1285 8.37596 11.4483 8.50736L10.7201 10.2406C10.0742 9.97778 8.14586 9.43654 6.98065 10.0623C6.43604 10.3563 6.09407 10.8913 5.93892 11.7047L5.91676 11.8049C5.89143 11.9926 5.8471 13.097 8.17752 14.1919C11.6542 15.8219 11.9898 17.5113 12.0278 18.9661V19.0913C12.0848 20.6806 10.4035 22.7861 8.16169 23.1208C7.92105 23.1553 7.67724 23.174 7.43027 23.174L7.4366 23.1709Z" fill="#FAA755"/>
<path d="M22.7205 15.0711C23.413 15.0711 23.9744 14.5165 23.9744 13.8322C23.9744 13.148 23.413 12.5933 22.7205 12.5933C22.028 12.5933 21.4666 13.148 21.4666 13.8322C21.4666 14.5165 22.028 15.0711 22.7205 15.0711Z" fill="#40D2FF"/>
<path d="M27.4637 15.0711C28.1562 15.0711 28.7175 14.5165 28.7175 13.8322C28.7175 13.148 28.1562 12.5933 27.4637 12.5933C26.7712 12.5933 26.2098 13.148 26.2098 13.8322C26.2098 14.5165 26.7712 15.0711 27.4637 15.0711Z" fill="#40D2FF"/>
<path d="M36.4592 14.4423C37.1517 14.4423 37.7131 13.8876 37.7131 13.2034C37.7131 12.5192 37.1517 11.9645 36.4592 11.9645C35.7667 11.9645 35.2054 12.5192 35.2054 13.2034C35.2054 13.8876 35.7667 14.4423 36.4592 14.4423Z" fill="#40D2FF"/>
<path d="M41.1137 15.3339C41.8062 15.3339 42.3676 14.7792 42.3676 14.095C42.3676 13.4108 41.8062 12.8561 41.1137 12.8561C40.4213 12.8561 39.8599 13.4108 39.8599 14.095C39.8599 14.7792 40.4213 15.3339 41.1137 15.3339Z" fill="#40D2FF"/>
<path d="M60.0738 23.5839C59.9724 23.5839 59.868 23.5683 59.7666 23.5339C59.2695 23.3681 59.0035 22.8331 59.1714 22.3419L64.6903 6.30493H66.4888L71.9222 22.345C72.09 22.8362 71.8209 23.3681 71.3238 23.5339C70.8266 23.6966 70.2884 23.4338 70.1206 22.9426L65.58 9.54299L60.9667 22.9457C60.8337 23.3368 60.4632 23.5839 60.0674 23.5839H60.0738Z" fill="#FAA755"/>
<path d="M38.8245 23.6465C38.0836 23.6465 35.5885 23.2679 33.885 21.5816C32.1815 19.8953 31.8554 17.1766 32.0169 15.7249C32.0295 15.6248 32.039 15.5091 32.0517 15.3839C32.1878 14.0293 32.4697 11.2136 34.1225 9.06425C35.4967 7.27785 37.0228 6.37683 38.7897 6.31738H38.815C38.929 6.31738 41.519 6.32677 43.3777 9.02984C45.1888 11.6672 45.5688 13.6038 45.5878 15.872C45.6068 18.0995 45.3123 19.8202 43.7703 21.5034C42.2758 23.1365 39.6192 23.6433 38.8245 23.6433V23.6465ZM38.834 8.19764C38.3844 8.21329 37.1052 8.29463 35.636 10.2062C34.3093 11.9331 34.0718 14.3015 33.9452 15.5748C33.9325 15.7093 33.9198 15.8313 33.9072 15.9377C33.7837 17.0327 34.1193 19.1632 35.2307 20.2582C36.4909 21.5034 38.4192 21.7724 38.8277 21.7724C39.3438 21.7724 41.3924 21.3157 42.3676 20.2488C43.3808 19.1445 43.7165 18.0432 43.6943 15.8939C43.6753 13.8791 43.3713 12.3586 41.8103 10.0873C40.585 8.30402 39.0018 8.20077 38.8372 8.19452L38.834 8.19764Z" fill="#FAA755"/>
<path d="M73.7872 23.5213C73.7365 23.5213 73.6859 23.5182 73.6352 23.5088C73.1191 23.4275 72.7645 22.9457 72.8499 22.4326L74.7592 10.7506C74.8416 10.2375 75.3292 9.89022 75.8485 9.97469C76.3646 10.056 76.7192 10.5378 76.6337 11.0509L74.7244 22.7329C74.6484 23.1928 74.2463 23.5213 73.7872 23.5213Z" fill="#FFCE7B"/>
<path d="M85.4836 23.5026C84.958 23.5026 84.5337 23.0833 84.5337 22.564V5.56967C84.5337 5.05033 84.958 4.6311 85.4836 4.6311C86.0092 4.6311 86.4335 5.05033 86.4335 5.56967V22.5609C86.4335 23.0802 86.0092 23.4994 85.4836 23.4994V23.5026Z" fill="#FAA755"/>
<path d="M80.598 22.7673C80.5695 22.7673 80.541 22.7673 80.5156 22.7673C79.3884 22.7454 78.2517 22.1416 77.3936 21.1092C76.7287 20.3083 75.9276 18.8692 75.9086 16.5791C75.8738 12.6746 77.7673 10.1749 80.8544 10.056C83.8498 9.94026 85.7401 13.2346 85.8193 13.3754L85.9396 13.5882L85.9269 18.2779C85.4108 21.5691 82.4249 22.7705 80.6011 22.7705L80.598 22.7673ZM81.0001 11.93C80.9748 11.93 80.9494 11.93 80.9241 11.93C78.9166 12.0082 77.7799 13.6977 77.8053 16.5603C77.8306 19.4761 79.4613 20.8652 80.5505 20.8902C81.5162 20.909 83.6503 20.2426 84.0334 18.0557V14.0887C83.549 13.3379 82.3553 11.93 81.0001 11.93Z" fill="#FAA755"/>
<path d="M83.0487 10.4658C83.9231 10.4658 84.6319 9.76549 84.6319 8.90156C84.6319 8.03763 83.9231 7.33728 83.0487 7.33728C82.1744 7.33728 81.4655 8.03763 81.4655 8.90156C81.4655 9.76549 82.1744 10.4658 83.0487 10.4658Z" fill="#FFCE7B"/>
<path d="M94.97 12.6809L95.6951 14.8459L96.8571 12.6809H94.97Z" fill="#FFCE7B"/>
<path d="M95.6951 14.9804C95.6951 14.9804 95.6887 14.9804 95.6824 14.9804C95.6286 14.9773 95.5811 14.9397 95.5652 14.8897L94.837 12.7247C94.8243 12.684 94.8306 12.6402 94.856 12.6027C94.8813 12.5683 94.9225 12.5464 94.9668 12.5464H96.8571C96.9046 12.5464 96.9489 12.5714 96.9743 12.6121C96.9996 12.6528 96.9996 12.7028 96.9774 12.7435L95.8154 14.9084C95.79 14.9522 95.7457 14.9804 95.6951 14.9804ZM95.1568 12.8154L95.7235 14.508L96.6323 12.8154H95.1568Z" fill="#FFCE7B"/>
<path d="M95.9135 20.9528L95.1853 19.5825L94.0232 20.9528H95.9135Z" fill="#FFCE7B"/>
<path d="M95.9135 21.0592H94.0232C93.9821 21.0592 93.9441 21.0341 93.9251 20.9966C93.9061 20.9591 93.9124 20.9153 93.9409 20.884L95.103 19.5137C95.1251 19.4855 95.16 19.473 95.1979 19.4761C95.2328 19.4792 95.2644 19.5011 95.2834 19.5324L96.0117 20.9027C96.0307 20.9372 96.0275 20.9747 96.0117 21.006C95.9927 21.0373 95.9579 21.056 95.9199 21.056L95.9135 21.0592ZM94.2544 20.8433H95.7331L95.1631 19.7702L94.2512 20.8433H94.2544Z" fill="#FFCE7B"/>
<path d="M92.706 22.7642C91.7751 22.7642 90.7746 22.5859 89.888 22.0415C88.441 21.153 87.6399 19.5324 87.5069 17.2298C87.3359 14.2796 88.0135 11.9989 89.5239 10.4596C91.3793 8.56685 93.8269 8.47925 94.533 8.49489C96.7906 8.55121 98.2534 11.0259 98.4118 11.3075L97.655 12.6997L90.173 13.2722C90.0843 13.2785 89.9988 13.2722 89.9133 13.2566C89.4827 14.289 89.3086 15.5811 89.4004 17.1234C89.4954 18.7816 89.9988 19.9016 90.8886 20.4491C92.5509 21.4721 95.2201 20.4053 95.2454 20.3928C95.7299 20.1894 96.2872 20.4147 96.4898 20.8902C96.6956 21.3689 96.4676 21.9195 95.9864 22.1198C95.8914 22.1604 94.4159 22.7642 92.7029 22.7642H92.706ZM94.4032 10.3689C93.9662 10.3689 92.6142 10.444 91.4363 11.2918L95.7172 10.9633C95.3468 10.638 94.9161 10.3783 94.4855 10.3689C94.4633 10.3689 94.4348 10.3689 94.4032 10.3689Z" fill="#FAA755"/>
<path d="M25.7064 11.2355C25.681 11.2355 25.6589 11.2292 25.6367 11.2198L23.4773 10.1499C23.4171 10.1217 23.3854 10.0592 23.3918 9.99345C23.3981 9.92775 23.4456 9.87457 23.5089 9.85893L25.6177 9.28953L23.4646 7.91296C23.3918 7.86604 23.3696 7.76905 23.4171 7.69709C23.4646 7.62514 23.5627 7.60324 23.6356 7.65016L26.0863 9.21757C26.1401 9.25199 26.1655 9.31143 26.156 9.374C26.1465 9.43657 26.1021 9.4835 26.042 9.50227L23.9902 10.056L25.7792 10.9414C25.8583 10.9789 25.89 11.0728 25.8488 11.151C25.8203 11.2042 25.7665 11.2386 25.7064 11.2386V11.2355Z" fill="#999999"/>
<path d="M24.8103 23.5464C24.0694 23.5464 21.5743 23.1678 19.8708 21.4815C18.1673 19.7952 17.8412 17.0765 18.0027 15.6249C18.0153 15.5247 18.0248 15.409 18.0375 15.2838C18.1737 13.9292 18.4555 11.1135 20.1083 8.96416C21.4825 7.17775 23.0087 6.27673 24.7755 6.21729H24.8008C24.9148 6.2298 27.5048 6.22667 29.3635 8.92974C31.1746 11.5671 31.5546 13.5037 31.5736 15.7719C31.5958 17.9994 31.2981 19.7201 29.7561 21.4033C28.2616 23.0364 25.605 23.5432 24.8103 23.5432V23.5464ZM24.8198 8.09442C24.3702 8.11006 23.091 8.1914 21.6218 10.103C20.2951 11.8299 20.0576 14.1982 19.931 15.4716C19.9183 15.6061 19.9056 15.7281 19.893 15.8345C19.7695 16.9295 20.1051 19.06 21.2165 20.155C22.4767 21.4002 24.405 21.6692 24.8135 21.6692C25.3296 21.6692 27.3782 21.2125 28.3534 20.1456C29.3667 19.0381 29.7023 17.94 29.6801 15.7907C29.6611 13.7759 29.3572 12.2554 27.7962 9.98719C26.5708 8.20392 24.9876 8.10068 24.823 8.09442H24.8198Z" fill="#FFCE7B"/>
<path d="M21.4666 2H2.9499C2.42429 2 2 2.41923 2 2.93857C2 3.45791 2.42429 3.87713 2.9499 3.87713H14.336V23.0614C14.336 23.5808 14.7603 24 15.2859 24C15.8116 24 16.2358 23.5808 16.2358 23.0614V3.87713H21.4666V2Z" fill="#FAA755"/>
<path d="M49.2735 8.6044V5.53842C49.2735 4.91896 48.7669 4.4184 48.14 4.4184C47.5131 4.4184 47.0065 4.91896 47.0065 5.53842V11.3262L49.2735 8.6044Z" fill="#FFCE7B"/>
<path d="M58.1803 21.6474L52.2118 12.6402L56.8726 7.11522C57.2367 6.68348 57.1797 6.03899 56.7396 5.67608C56.2995 5.3163 55.6504 5.37261 55.2831 5.80748L49.2702 12.9375V12.9312L47.0031 15.653V22.6141C47.0031 23.2335 47.5098 23.7341 48.1367 23.7341C48.7636 23.7341 49.2702 23.2335 49.2702 22.6141V16.1255L50.8249 14.2827L56.4483 22.7674C56.6478 23.0677 56.9771 23.2304 57.3159 23.2304C57.509 23.2304 57.7085 23.1772 57.8827 23.0615C58.3608 22.7517 58.4938 22.1166 58.1803 21.6442V21.6474Z" fill="#FFCE7B"/>
</svg>
