<svg width="172" height="218" viewBox="0 0 172 218" fill="none" xmlns="http://www.w3.org/2000/svg">
<path d="M17.0522 213.858H63.3134C63.3134 213.858 63.3134 199.218 40.1858 199.218C17.0581 199.218 17.0522 213.858 17.0522 213.858Z" fill="#FAA755" stroke="#000333" stroke-width="8" stroke-miterlimit="10"/>
<path d="M109.574 213.858H155.836C155.836 213.858 155.836 199.218 132.708 199.218C109.58 199.218 109.574 213.858 109.574 213.858Z" fill="#FAA755" stroke="#000333" stroke-width="8" stroke-miterlimit="10"/>
<path d="M86.5963 3.0468C86.5963 3.0468 115.758 2.81257 137.144 34.317C158.53 65.8215 164.309 88.794 164.602 120.152C164.895 151.51 159.976 169.716 143.503 187.922C127.031 206.128 95.5851 212.774 86.5963 212.774C77.6076 212.774 48.709 207.861 29.3437 188.496C9.97842 169.136 6.22482 135.032 7.95815 119.426C9.69148 103.82 11.7176 64.2287 33.677 35.3242C55.6423 6.42563 75.927 3.42743 86.5963 3.0468Z" fill="white" stroke="black" stroke-width="6" stroke-miterlimit="10"/>
<path d="M86.7197 3V113.307H164.737C164.737 113.307 163.718 15.5959 86.7197 3Z" stroke="#000333" stroke-width="4" stroke-miterlimit="10"/>
<path d="M86.5959 168.105C116.835 168.105 141.348 143.592 141.348 113.353C141.348 83.1145 116.835 58.6011 86.5959 58.6011C56.3571 58.6011 31.8438 83.1145 31.8438 113.353C31.8438 143.592 56.3571 168.105 86.5959 168.105Z" fill="#FFCE5D" stroke="#000333" stroke-width="4" stroke-miterlimit="10"/>
<path d="M132.478 86.4984C132.478 86.4984 134.076 88.1439 132.478 89.7894C130.879 91.4349 129.72 89.1804 129.72 89.1804C129.72 89.1804 114.887 63.0926 86.5913 63.6781V60.0475C86.5913 60.0475 114.383 57.7989 132.478 86.4925V86.4984Z" fill="url(#paint0_radial_173_213)"/>
<path d="M107.367 73.9082C107.367 73.9082 108.848 69.9204 105.317 68.7785C101.786 67.6366 99.391 68.7785 99.391 68.7785C99.391 68.7785 97.6811 72.8835 101.786 74.5934C105.891 76.3033 107.373 73.9082 107.373 73.9082H107.367Z" fill="#FFFBFF"/>
<path d="M110.476 80.1858C111.763 80.1858 112.807 79.1423 112.807 77.8552C112.807 76.568 111.763 75.5245 110.476 75.5245C109.189 75.5245 108.145 76.568 108.145 77.8552C108.145 79.1423 109.189 80.1858 110.476 80.1858Z" fill="#FFFBFF"/>
<path d="M119.009 80.1858C119.96 80.1858 120.73 79.415 120.73 78.4642C120.73 77.5133 119.96 76.7426 119.009 76.7426C118.058 76.7426 117.287 77.5133 117.287 78.4642C117.287 79.415 118.058 80.1858 119.009 80.1858Z" fill="#FFFBFF"/>
<path d="M86.7197 3V113.307H164.737C164.737 113.307 163.724 15.5901 86.7197 3ZM117.287 99.235C102.103 99.235 89.7999 86.926 89.7999 71.7477C89.7999 56.5693 102.109 44.2603 117.287 44.2603C132.466 44.2603 144.775 56.5693 144.775 71.7477C144.775 86.926 132.466 99.235 117.287 99.235Z" fill="white" stroke="#000333" stroke-width="2" stroke-miterlimit="10"/>
<path d="M86.5963 3.04688V113.353H8.57886C8.57886 113.353 9.59192 15.6369 86.5963 3.04688Z" fill="white" stroke="#000333" stroke-width="4" stroke-miterlimit="10"/>
<path opacity="0.35" d="M154.266 99.9963C155.836 112.071 155.812 121.388 155.812 121.388L163.15 124.046C163.15 124.046 162.997 111.685 160.842 95.7333L154.272 99.9963H154.266Z" fill="url(#paint1_radial_173_213)"/>
<path d="M7.57792 122.184L164.608 124.485C164.608 124.485 171.389 204.488 86.5909 212.774C19.0144 208.048 3.96486 151.569 7.57792 122.184Z" fill="white"/>
<path opacity="0.35" d="M7.57788 129.082C7.57788 129.082 9.6977 211.24 85.8647 212.756C162.038 214.273 164.608 129.082 164.608 129.082H150.9C150.9 129.082 151.942 195.482 86.0931 195.482C20.2441 195.482 20.6423 131.343 20.6423 131.343L7.57788 129.082Z" fill="url(#paint2_radial_173_213)"/>
<path d="M86.5963 3.0468C86.5963 3.0468 115.758 2.81257 137.144 34.317C158.53 65.8215 164.309 88.794 164.602 120.152C164.895 151.51 159.976 169.716 143.503 187.922C127.031 206.128 95.5851 212.774 86.5963 212.774C77.6076 212.774 48.709 207.861 29.3437 188.496C9.97842 169.136 6.22482 135.032 7.95815 119.426C9.69148 103.82 11.7176 64.2287 33.677 35.3242C55.6423 6.42563 75.927 3.42743 86.5963 3.0468Z" stroke="black" stroke-width="6" stroke-miterlimit="10"/>
<path d="M12.2737 113.359C12.2737 113.359 3.56018 113.09 3.02144 121.253C2.48271 129.416 12.2737 132.959 12.2737 132.959C12.2737 132.959 92.3055 138.949 160.081 132.959C160.081 132.959 168.25 131.325 168.519 122.073C168.789 112.821 158.723 113.359 158.723 113.359C158.723 113.359 92.5749 116.357 12.2737 113.359Z" fill="#FFCE7B" stroke="black" stroke-width="6" stroke-miterlimit="10"/>
<path d="M63.5946 159.123C67.7762 159.123 71.1662 155.733 71.1662 151.551C71.1662 147.37 67.7762 143.98 63.5946 143.98C59.4129 143.98 56.0229 147.37 56.0229 151.551C56.0229 155.733 59.4129 159.123 63.5946 159.123Z" fill="black"/>
<path d="M125.426 159.123C129.608 159.123 132.998 155.733 132.998 151.551C132.998 147.37 129.608 143.98 125.426 143.98C121.244 143.98 117.854 147.37 117.854 151.551C117.854 155.733 121.244 159.123 125.426 159.123Z" fill="black"/>
<path d="M81.9754 170.723C81.9754 170.723 81.6767 167.766 84.2592 167.707C86.8416 167.649 87.7141 170.348 87.7141 170.348C87.7141 170.348 87.5209 174.775 94.6357 176.62C101.751 178.47 105.44 174.406 105.44 174.406C105.44 174.406 106.863 172.269 108.959 174.178C111.056 176.087 108.696 178.388 108.696 178.388C108.696 178.388 104.146 183.43 93.974 180.93C83.8024 178.429 81.9812 170.723 81.9812 170.723H81.9754Z" fill="black"/>
<path d="M98.4471 79.0791H96.9305C94.9577 79.0791 93.3584 80.6784 93.3584 82.6512V98.6962C93.3584 100.669 94.9577 102.268 96.9305 102.268H98.4471C100.42 102.268 102.019 100.669 102.019 98.6962V82.6512C102.019 80.6784 100.42 79.0791 98.4471 79.0791Z" fill="white" stroke="#727272" stroke-width="3.05" stroke-miterlimit="10"/>
<path d="M97.6922 80.8359C98.6584 80.8359 99.449 81.6264 99.449 82.5926V97.9642C99.449 98.9304 98.6584 99.721 97.6922 99.721H96.0584C95.0922 99.721 94.3017 98.9304 94.3017 97.9642V82.5926C94.3017 81.6264 95.0922 80.8359 96.0584 80.8359H97.6922ZM97.6922 79.0791H96.0584C94.126 79.0791 92.5449 80.6602 92.5449 82.5926V97.9642C92.5449 99.8966 94.126 101.478 96.0584 101.478H97.6922C99.6246 101.478 101.206 99.8966 101.206 97.9642V82.5926C101.206 80.6602 99.6246 79.0791 97.6922 79.0791Z" fill="#BFBFBF"/>
<path d="M97.6922 79.0791H96.0584C94.118 79.0791 92.5449 80.6522 92.5449 82.5926V97.9642C92.5449 99.9047 94.118 101.478 96.0584 101.478H97.6922C99.6327 101.478 101.206 99.9047 101.206 97.9642V82.5926C101.206 80.6522 99.6327 79.0791 97.6922 79.0791Z" stroke="#000333" stroke-width="3" stroke-miterlimit="10"/>
<path d="M76.055 79.0792H74.5384C72.5656 79.0792 70.9663 80.6785 70.9663 82.6513V98.6963C70.9663 100.669 72.5656 102.268 74.5384 102.268H76.055C78.0278 102.268 79.6271 100.669 79.6271 98.6963V82.6513C79.6271 80.6785 78.0278 79.0792 76.055 79.0792Z" fill="white" stroke="#727272" stroke-width="3.05" stroke-miterlimit="10"/>
<path d="M75.2996 80.8361C76.2658 80.8361 77.0564 81.6266 77.0564 82.5929V97.9645C77.0564 98.9307 76.2658 99.7212 75.2996 99.7212H73.6659C72.6996 99.7212 71.9091 98.9307 71.9091 97.9645V82.5929C71.9091 81.6266 72.6996 80.8361 73.6659 80.8361H75.2996ZM75.2996 79.0793H73.6659C71.7334 79.0793 70.1523 80.6604 70.1523 82.5929V97.9645C70.1523 99.8969 71.7334 101.478 73.6659 101.478H75.2996C77.2321 101.478 78.8131 99.8969 78.8131 97.9645V82.5929C78.8131 80.6604 77.2321 79.0793 75.2996 79.0793Z" fill="#BFBFBF"/>
<path d="M75.2996 79.0793H73.6659C71.7254 79.0793 70.1523 80.6524 70.1523 82.5929V97.9645C70.1523 99.9049 71.7254 101.478 73.6659 101.478H75.2996C77.2401 101.478 78.8131 99.9049 78.8131 97.9645V82.5929C78.8131 80.6524 77.2401 79.0793 75.2996 79.0793Z" stroke="#000333" stroke-width="3" stroke-miterlimit="10"/>
<defs>
<radialGradient id="paint0_radial_173_213" cx="0" cy="0" r="1" gradientUnits="userSpaceOnUse" gradientTransform="translate(100.629 66.0284) rotate(45.45) scale(30.4337 31.9944)">
<stop stop-color="white"/>
<stop offset="0.79" stop-color="#E3EBFF" stop-opacity="0.0441"/>
<stop offset="1" stop-color="#DCE6FF" stop-opacity="0"/>
</radialGradient>
<radialGradient id="paint1_radial_173_213" cx="0" cy="0" r="1" gradientUnits="userSpaceOnUse" gradientTransform="translate(159.085 110.59) rotate(180) scale(5.70921 11.9282)">
<stop stop-color="#D7F9FF"/>
<stop offset="1" stop-color="#DCE6FF"/>
</radialGradient>
<radialGradient id="paint2_radial_173_213" cx="0" cy="0" r="1" gradientUnits="userSpaceOnUse" gradientTransform="translate(86.0931 170.928) scale(62.9094 62.9094)">
<stop stop-color="#D7F9FF"/>
<stop offset="1" stop-color="#DCE6FF"/>
</radialGradient>
</defs>
</svg>
