<svg width="250" height="250" viewBox="0 0 250 250" fill="none" xmlns="http://www.w3.org/2000/svg">
<rect width="250" height="250" rx="20" fill="url(#paint0_linear_61_157)"/>
<path d="M56.0522 230.857H102.313C102.313 230.857 102.313 216.218 79.1858 216.218C56.0581 216.218 56.0522 230.857 56.0522 230.857Z" fill="#FAA755" stroke="#000333" stroke-width="8" stroke-miterlimit="10"/>
<path d="M148.574 230.857H194.836C194.836 230.857 194.836 216.218 171.708 216.218C148.58 216.218 148.574 230.857 148.574 230.857Z" fill="#FAA755" stroke="#000333" stroke-width="8" stroke-miterlimit="10"/>
<path d="M125.596 20.0468C125.596 20.0468 154.758 19.8126 176.144 51.317C197.53 82.8215 203.309 105.794 203.602 137.152C203.895 168.51 198.976 186.716 182.503 204.922C166.031 223.128 134.585 229.774 125.596 229.774C116.608 229.774 87.709 224.861 68.3437 205.496C48.9784 186.136 45.2248 152.032 46.9582 136.426C48.6915 120.82 50.7176 81.2287 72.677 52.3242C94.6423 23.4256 114.927 20.4274 125.596 20.0468Z" fill="white" stroke="black" stroke-width="6" stroke-miterlimit="10"/>
<path d="M125.72 20V130.307H203.737C203.737 130.307 202.718 32.5959 125.72 20Z" stroke="#000333" stroke-width="4" stroke-miterlimit="10"/>
<path d="M125.596 185.105C155.835 185.105 180.348 160.592 180.348 130.353C180.348 100.114 155.835 75.6011 125.596 75.6011C95.3571 75.6011 70.8438 100.114 70.8438 130.353C70.8438 160.592 95.3571 185.105 125.596 185.105Z" fill="#FFCE5D" stroke="#000333" stroke-width="4" stroke-miterlimit="10"/>
<path d="M171.478 103.498C171.478 103.498 173.076 105.144 171.478 106.789C169.879 108.435 168.72 106.18 168.72 106.18C168.72 106.18 153.887 80.0926 125.591 80.6781V77.0475C125.591 77.0475 153.383 74.7989 171.478 103.493V103.498Z" fill="url(#paint1_radial_61_157)"/>
<path d="M146.367 90.9082C146.367 90.9082 147.848 86.9204 144.317 85.7785C140.786 84.6366 138.391 85.7785 138.391 85.7785C138.391 85.7785 136.681 89.8835 140.786 91.5934C144.891 93.3033 146.373 90.9082 146.373 90.9082H146.367Z" fill="#FFFBFF"/>
<path d="M149.476 97.1858C150.763 97.1858 151.807 96.1423 151.807 94.8552C151.807 93.568 150.763 92.5245 149.476 92.5245C148.189 92.5245 147.145 93.568 147.145 94.8552C147.145 96.1423 148.189 97.1858 149.476 97.1858Z" fill="#FFFBFF"/>
<path d="M158.009 97.1858C158.96 97.1858 159.73 96.4151 159.73 95.4642C159.73 94.5134 158.96 93.7426 158.009 93.7426C157.058 93.7426 156.287 94.5134 156.287 95.4642C156.287 96.4151 157.058 97.1858 158.009 97.1858Z" fill="#FFFBFF"/>
<path d="M125.72 20V130.307H203.737C203.737 130.307 202.724 32.5901 125.72 20ZM156.287 116.235C141.103 116.235 128.8 103.926 128.8 88.7477C128.8 73.5693 141.109 61.2603 156.287 61.2603C171.466 61.2603 183.775 73.5693 183.775 88.7477C183.775 103.926 171.466 116.235 156.287 116.235Z" fill="white" stroke="#000333" stroke-width="2" stroke-miterlimit="10"/>
<path d="M125.596 20.0469V130.353H47.5789C47.5789 130.353 48.5919 32.6369 125.596 20.0469Z" fill="white" stroke="#000333" stroke-width="4" stroke-miterlimit="10"/>
<path opacity="0.35" d="M193.266 116.996C194.836 129.071 194.812 138.388 194.812 138.388L202.15 141.046C202.15 141.046 201.997 128.685 199.842 112.733L193.272 116.996H193.266Z" fill="url(#paint2_radial_61_157)"/>
<path d="M46.5779 139.184L203.608 141.485C203.608 141.485 210.389 221.488 125.591 229.774C58.0144 225.048 42.9649 168.569 46.5779 139.184Z" fill="white"/>
<path opacity="0.35" d="M46.5779 146.082C46.5779 146.082 48.6977 228.24 124.865 229.756C201.038 231.273 203.608 146.082 203.608 146.082H189.9C189.9 146.082 190.942 212.482 125.093 212.482C59.2441 212.482 59.6423 148.343 59.6423 148.343L46.5779 146.082Z" fill="url(#paint3_radial_61_157)"/>
<path d="M125.596 20.0468C125.596 20.0468 154.758 19.8126 176.144 51.317C197.53 82.8215 203.309 105.794 203.602 137.152C203.895 168.51 198.976 186.716 182.503 204.922C166.031 223.128 134.585 229.774 125.596 229.774C116.608 229.774 87.709 224.861 68.3437 205.496C48.9784 186.136 45.2248 152.032 46.9582 136.426C48.6915 120.82 50.7176 81.2287 72.677 52.3242C94.6423 23.4256 114.927 20.4274 125.596 20.0468Z" stroke="black" stroke-width="6" stroke-miterlimit="10"/>
<path d="M51.2737 130.359C51.2737 130.359 42.5602 130.09 42.0214 138.253C41.4827 146.416 51.2737 149.959 51.2737 149.959C51.2737 149.959 131.306 155.949 199.081 149.959C199.081 149.959 207.25 148.325 207.519 139.073C207.789 129.821 197.723 130.359 197.723 130.359C197.723 130.359 131.575 133.358 51.2737 130.359Z" fill="#FFCE7B" stroke="black" stroke-width="6" stroke-miterlimit="10"/>
<path d="M102.595 176.123C106.776 176.123 110.166 172.733 110.166 168.551C110.166 164.369 106.776 160.98 102.595 160.98C98.4129 160.98 95.0229 164.369 95.0229 168.551C95.0229 172.733 98.4129 176.123 102.595 176.123Z" fill="black"/>
<path d="M164.426 176.123C168.608 176.123 171.998 172.733 171.998 168.551C171.998 164.369 168.608 160.98 164.426 160.98C160.244 160.98 156.854 164.369 156.854 168.551C156.854 172.733 160.244 176.123 164.426 176.123Z" fill="black"/>
<path d="M120.975 187.723C120.975 187.723 120.677 184.766 123.259 184.707C125.842 184.649 126.714 187.348 126.714 187.348C126.714 187.348 126.521 191.775 133.636 193.62C140.751 195.47 144.44 191.406 144.44 191.406C144.44 191.406 145.863 189.269 147.959 191.178C150.056 193.087 147.696 195.388 147.696 195.388C147.696 195.388 143.146 200.43 132.974 197.93C122.802 195.429 120.981 187.723 120.981 187.723H120.975Z" fill="black"/>
<path d="M137.447 96.0791H135.93C133.958 96.0791 132.358 97.6784 132.358 99.6512V115.696C132.358 117.669 133.958 119.268 135.93 119.268H137.447C139.42 119.268 141.019 117.669 141.019 115.696V99.6512C141.019 97.6784 139.42 96.0791 137.447 96.0791Z" fill="white" stroke="#727272" stroke-width="3.05" stroke-miterlimit="10"/>
<path d="M136.692 97.8359C137.658 97.8359 138.449 98.6264 138.449 99.5926V114.964C138.449 115.93 137.658 116.721 136.692 116.721H135.058C134.092 116.721 133.302 115.93 133.302 114.964V99.5926C133.302 98.6264 134.092 97.8359 135.058 97.8359H136.692ZM136.692 96.0791H135.058C133.126 96.0791 131.545 97.6602 131.545 99.5926V114.964C131.545 116.897 133.126 118.478 135.058 118.478H136.692C138.625 118.478 140.206 116.897 140.206 114.964V99.5926C140.206 97.6602 138.625 96.0791 136.692 96.0791Z" fill="#BFBFBF"/>
<path d="M136.692 96.0791H135.058C133.118 96.0791 131.545 97.6522 131.545 99.5926V114.964C131.545 116.905 133.118 118.478 135.058 118.478H136.692C138.633 118.478 140.206 116.905 140.206 114.964V99.5926C140.206 97.6522 138.633 96.0791 136.692 96.0791Z" stroke="#000333" stroke-width="3" stroke-miterlimit="10"/>
<path d="M115.055 96.0793H113.538C111.566 96.0793 109.966 97.6786 109.966 99.6514V115.696C109.966 117.669 111.566 119.268 113.538 119.268H115.055C117.028 119.268 118.627 117.669 118.627 115.696V99.6514C118.627 97.6786 117.028 96.0793 115.055 96.0793Z" fill="white" stroke="#727272" stroke-width="3.05" stroke-miterlimit="10"/>
<path d="M114.3 97.8362C115.266 97.8362 116.056 98.6268 116.056 99.593V114.965C116.056 115.931 115.266 116.721 114.3 116.721H112.666C111.7 116.721 110.909 115.931 110.909 114.965V99.593C110.909 98.6268 111.7 97.8362 112.666 97.8362H114.3ZM114.3 96.0795H112.666C110.733 96.0795 109.152 97.6605 109.152 99.593V114.965C109.152 116.897 110.733 118.478 112.666 118.478H114.3C116.232 118.478 117.813 116.897 117.813 114.965V99.593C117.813 97.6605 116.232 96.0795 114.3 96.0795Z" fill="#BFBFBF"/>
<path d="M114.3 96.0795H112.666C110.725 96.0795 109.152 97.6525 109.152 99.593V114.965C109.152 116.905 110.725 118.478 112.666 118.478H114.3C116.24 118.478 117.813 116.905 117.813 114.965V99.593C117.813 97.6525 116.24 96.0795 114.3 96.0795Z" stroke="#000333" stroke-width="3" stroke-miterlimit="10"/>
<defs>
<linearGradient id="paint0_linear_61_157" x1="-7.99999" y1="-22" x2="281.5" y2="280.5" gradientUnits="userSpaceOnUse">
<stop stop-color="#FFCE7B"/>
<stop offset="1" stop-color="#FAA755"/>
</linearGradient>
<radialGradient id="paint1_radial_61_157" cx="0" cy="0" r="1" gradientUnits="userSpaceOnUse" gradientTransform="translate(139.629 83.0284) rotate(45.45) scale(30.4337 31.9944)">
<stop stop-color="white"/>
<stop offset="0.79" stop-color="#E3EBFF" stop-opacity="0.0441"/>
<stop offset="1" stop-color="#DCE6FF" stop-opacity="0"/>
</radialGradient>
<radialGradient id="paint2_radial_61_157" cx="0" cy="0" r="1" gradientUnits="userSpaceOnUse" gradientTransform="translate(198.085 127.59) rotate(180) scale(5.70921 11.9282)">
<stop stop-color="#D7F9FF"/>
<stop offset="1" stop-color="#DCE6FF"/>
</radialGradient>
<radialGradient id="paint3_radial_61_157" cx="0" cy="0" r="1" gradientUnits="userSpaceOnUse" gradientTransform="translate(125.093 187.928) scale(62.9094 62.9094)">
<stop stop-color="#D7F9FF"/>
<stop offset="1" stop-color="#DCE6FF"/>
</radialGradient>
</defs>
</svg>
